<svg width="2048" height="480" viewBox="0 0 2048 480" fill="none" xmlns="http://www.w3.org/2000/svg">
  <rect width="2048" height="480" rx="56" fill="#0C2141"/>
  <g opacity="0.16">
    <circle cx="188" cy="66" r="3" fill="#AAB4C5"/>
    <circle cx="244" cy="66" r="3" fill="#AAB4C5"/>
    <circle cx="300" cy="66" r="3" fill="#AAB4C5"/>
    <circle cx="356" cy="66" r="3" fill="#AAB4C5"/>
    <circle cx="412" cy="66" r="3" fill="#AAB4C5"/>
    <circle cx="468" cy="66" r="3" fill="#AAB4C5"/>
    <circle cx="524" cy="66" r="3" fill="#AAB4C5"/>
    <circle cx="580" cy="66" r="3" fill="#AAB4C5"/>
  </g>
  <g opacity="0.08">
    <path d="M0 412C156 328 290 304 402 340C508 374 650 382 828 336C1026 284 1216 306 1398 372C1570 434 1788 432 2048 320V480H0V412Z" fill="url(#paint0_linear_417_3)"/>
  </g>
  <circle cx="1638" cy="235" r="126" fill="#F7D237"/>
  <g opacity="0.96">
    <path d="M1348.86 116.12C1391.88 116.12 1423.51 147.39 1423.51 193.22V330H1399.15V193.8C1399.15 161.43 1378.49 140.84 1347.49 140.84C1313.64 140.84 1289.27 165.47 1289.27 201.73V330H1264.91V193.22C1264.91 147.39 1297.91 116.12 1348.86 116.12ZM1522.57 116.12C1586.19 116.12 1627.86 161.25 1627.86 224.16V232.84H1460.61C1464.95 276.4 1495.44 306.45 1540.19 306.45C1572.83 306.45 1598.2 290.33 1611.52 264.67H1637.6C1621.91 305.95 1585.24 330 1539.9 330C1476.01 330 1433.63 283.3 1433.63 223.88C1433.63 162.82 1478.32 116.12 1522.57 116.12ZM1602.84 209.15C1597.05 168.53 1567.11 139.39 1522.28 139.39C1478.03 139.39 1448.81 168.02 1442.3 209.15H1602.84ZM1714.87 330.58C1668.17 330.58 1634.53 304.07 1631.35 261.05H1655.71C1658.17 291.12 1680.86 307.03 1714.87 307.03C1748.08 307.03 1769.54 291.91 1769.54 269.59C1769.54 246.56 1750.25 240.41 1704.45 230.86C1658.17 221.31 1638.44 211.47 1638.44 175.43C1638.44 139.17 1668.17 116.12 1711.69 116.12C1756.58 116.12 1788.57 142.05 1791.39 182.09H1767.03C1764.86 154.12 1742.84 139.39 1711.69 139.39C1682.03 139.39 1662.8 153.82 1662.8 174.34C1662.8 194.28 1682.38 200.06 1721.31 208.49C1773.44 219.69 1794.26 228.96 1794.26 268.72C1794.26 306.02 1760.77 330.58 1714.87 330.58ZM1832.59 330V72H1856.95V330H1832.59Z" fill="white"/>
    <path d="M1416.99 224.55C1416.99 294.43 1369.11 342 1307.68 342C1249.81 342 1204.96 300.42 1204.96 224.55C1204.96 149.26 1251.62 107.45 1308.27 107.45C1365.36 107.45 1416.99 148.39 1416.99 224.55ZM1389.78 224.55C1389.78 163.57 1350.27 132.66 1308.27 132.66C1267.66 132.66 1232.17 161.33 1232.17 224.55C1232.17 288.35 1267.66 316.79 1308.27 316.79C1349.83 316.79 1389.78 286.76 1389.78 224.55Z" fill="white"/>
    <path d="M1447.55 205.3C1447.55 144.54 1490.72 107.45 1541.66 107.45C1592.61 107.45 1628.1 141.31 1631.28 186.92H1604.37C1600.75 154.55 1578.44 132.66 1541.66 132.66C1498.64 132.66 1474.77 164.66 1474.77 205.3C1474.77 246.87 1498.57 279.45 1541.66 279.45C1577.86 279.45 1600.39 257.56 1604.37 224.77H1631.28C1627.66 270.74 1592.46 304.66 1541.66 304.66C1490.36 304.66 1447.55 267.65 1447.55 205.3Z" fill="white"/>
    <path d="M1732.18 107.45C1783.13 107.45 1818.62 141.31 1821.8 186.92H1794.89C1791.28 154.55 1768.96 132.66 1732.18 132.66C1689.16 132.66 1665.29 164.66 1665.29 205.3C1665.29 246.87 1689.09 279.45 1732.18 279.45C1768.38 279.45 1790.91 257.56 1794.89 224.77H1821.8C1818.18 270.74 1782.98 304.66 1732.18 304.66C1680.88 304.66 1638.07 267.65 1638.07 205.3C1638.07 144.54 1681.24 107.45 1732.18 107.45Z" fill="white"/>
  </g>
  <defs>
    <linearGradient id="paint0_linear_417_3" x1="1024" y1="296" x2="1024" y2="480" gradientUnits="userSpaceOnUse">
      <stop stop-color="#F7D237"/>
      <stop offset="1" stop-color="#F7D237" stop-opacity="0"/>
    </linearGradient>
  </defs>
</svg>
