<svg xmlns="http://www.w3.org/2000/svg" xmlns:xlink="http://www.w3.org/1999/xlink" width="1080" zoomAndPan="magnify" viewBox="0 0 810 809.999993" height="1080" preserveAspectRatio="xMidYMid meet" version="1.0"><defs><clipPath id="2967229861"><path d="M 164.265625 551 L 240.9375 551 L 240.9375 692 L 164.265625 692 Z M 164.265625 551 " clip-rule="nonzero"/></clipPath><clipPath id="56898d42ea"><path d="M 174.675781 555.375 C 177.976562 577.199219 179.550781 582.824219 181.273438 588.675781 C 183.074219 594.898438 185.023438 600.976562 187.800781 607.726562 C 191.023438 615.601562 195.75 625.050781 199.875 632.773438 C 203.625 639.824219 207.675781 646.351562 211.5 652.273438 C 214.875 657.449219 217.574219 661.648438 221.699219 666.375 C 226.574219 672 236.699219 679.949219 239.324219 683.324219 C 240.226562 684.601562 240.675781 685.050781 240.75 686.101562 C 240.898438 687.375 240.300781 689.550781 239.324219 690.523438 C 238.351562 691.425781 236.175781 692.023438 234.898438 691.726562 C 233.550781 691.425781 231.824219 690 231.375 688.800781 C 230.851562 687.523438 231.226562 685.273438 231.824219 684.148438 C 232.351562 683.25 233.324219 682.5 234.300781 682.273438 C 235.574219 681.976562 237.824219 682.351562 238.875 683.023438 C 239.773438 683.550781 240.375 684.675781 240.675781 685.574219 C 240.898438 686.550781 240.898438 687.824219 240.523438 688.726562 C 240.148438 689.699219 239.324219 690.601562 238.5 691.125 C 237.601562 691.648438 236.398438 691.949219 235.425781 691.800781 C 234.375 691.726562 233.699219 691.273438 232.574219 690.523438 C 230.25 688.875 226.273438 684.375 223.199219 681.226562 C 220.199219 678.148438 217.273438 675.375 214.273438 671.773438 C 210.675781 667.5 207.148438 662.398438 203.550781 657 C 199.5 650.925781 195.375 644.101562 191.476562 636.898438 C 187.125 628.875 182.175781 618.976562 178.800781 610.800781 C 175.875 603.898438 173.851562 597.601562 171.898438 591.148438 C 170.023438 585 168.226562 579.148438 167.023438 573 C 165.824219 566.925781 163.949219 557.476562 164.699219 554.476562 C 164.925781 553.351562 165.375 552.976562 166.050781 552.375 C 166.800781 551.699219 168.226562 551.023438 169.425781 551.023438 C 170.550781 550.949219 171.976562 551.476562 172.875 552.226562 C 173.699219 552.898438 174.675781 555.375 174.675781 555.375 " clip-rule="nonzero"/></clipPath><clipPath id="dffd02fcee"><path d="M 0.265625 0 L 76.9375 0 L 76.9375 141 L 0.265625 141 Z M 0.265625 0 " clip-rule="nonzero"/></clipPath><clipPath id="ee107ed62a"><path d="M 10.675781 4.375 C 13.976562 26.199219 15.550781 31.824219 17.273438 37.675781 C 19.074219 43.898438 21.023438 49.976562 23.800781 56.726562 C 27.023438 64.601562 31.75 74.050781 35.875 81.773438 C 39.625 88.824219 43.675781 95.351562 47.5 101.273438 C 50.875 106.449219 53.574219 110.648438 57.699219 115.375 C 62.574219 121 72.699219 128.949219 75.324219 132.324219 C 76.226562 133.601562 76.675781 134.050781 76.75 135.101562 C 76.898438 136.375 76.300781 138.550781 75.324219 139.523438 C 74.351562 140.425781 72.175781 141.023438 70.898438 140.726562 C 69.550781 140.425781 67.824219 139 67.375 137.800781 C 66.851562 136.523438 67.226562 134.273438 67.824219 133.148438 C 68.351562 132.25 69.324219 131.5 70.300781 131.273438 C 71.574219 130.976562 73.824219 131.351562 74.875 132.023438 C 75.773438 132.550781 76.375 133.675781 76.675781 134.574219 C 76.898438 135.550781 76.898438 136.824219 76.523438 137.726562 C 76.148438 138.699219 75.324219 139.601562 74.5 140.125 C 73.601562 140.648438 72.398438 140.949219 71.425781 140.800781 C 70.375 140.726562 69.699219 140.273438 68.574219 139.523438 C 66.25 137.875 62.273438 133.375 59.199219 130.226562 C 56.199219 127.148438 53.273438 124.375 50.273438 120.773438 C 46.675781 116.5 43.148438 111.398438 39.550781 106 C 35.5 99.925781 31.375 93.101562 27.476562 85.898438 C 23.125 77.875 18.175781 67.976562 14.800781 59.800781 C 11.875 52.898438 9.851562 46.601562 7.898438 40.148438 C 6.023438 34 4.226562 28.148438 3.023438 22 C 1.824219 15.925781 -0.0507812 6.476562 0.699219 3.476562 C 0.925781 2.351562 1.375 1.976562 2.050781 1.375 C 2.800781 0.699219 4.226562 0.0234375 5.425781 0.0234375 C 6.550781 -0.0507812 7.976562 0.476562 8.875 1.226562 C 9.699219 1.898438 10.675781 4.375 10.675781 4.375 " clip-rule="nonzero"/></clipPath><clipPath id="276afe856e"><rect x="0" width="77" y="0" height="141"/></clipPath></defs><path fill="#0b1d3a" d="M 293.726562 362.53125 C 268.101562 402.863281 256.238281 394.324219 215.429688 396.695312 C 178.417969 399.070312 186.011719 430.859375 175.097656 449.84375 C 165.132812 467.398438 146.152344 471.667969 90.632812 439.878906 C 82.566406 435.132812 74.5 429.914062 66.433594 423.742188 C 30.367188 624.9375 184.113281 809.527344 388.628906 810 C 383.410156 799.5625 381.511719 788.648438 382.460938 777.257812 C 385.308594 746.414062 402.390625 729.332031 411.878906 708.929688 C 418.523438 695.167969 415.675781 682.828125 376.292969 664.324219 C 316.976562 636.328125 279.964844 592.671875 292.300781 537.628906 C 301.316406 495.871094 343.550781 458.859375 385.308594 456.960938 C 478.789062 453.636719 429.910156 559.457031 485.90625 579.386719 C 540.949219 598.367188 649.613281 585.554688 693.742188 603.109375 C 708.929688 565.148438 716.996094 524.339844 716.996094 481.160156 C 679.035156 521.492188 645.816406 519.597656 615.921875 497.769531 C 576.539062 469.296875 548.066406 407.609375 518.648438 366.800781 C 477.839844 310.808594 360.15625 345.449219 421.371094 214.007812 C 430.386719 195.027344 441.300781 177.945312 451.738281 160.386719 C 407.609375 151.84375 361.582031 152.320312 317.925781 161.808594 C 358.734375 223.496094 329.316406 305.589844 293.726562 362.53125 Z M 293.726562 362.53125 " fill-opacity="1" fill-rule="evenodd"/><path fill="#0b1d3a" d="M 385.78125 477.363281 C 327.417969 479.261719 249.121094 582.230469 385.308594 646.292969 C 484.957031 693.269531 407.136719 725.0625 402.390625 779.15625 C 401.441406 790.542969 404.289062 800.984375 412.828125 809.050781 C 532.40625 800.507812 635.851562 726.960938 685.675781 621.140625 C 649.140625 606.433594 537.152344 618.296875 479.738281 598.367188 C 408.558594 573.214844 457.910156 474.515625 385.78125 477.363281 Z M 385.78125 477.363281 " fill-opacity="1" fill-rule="evenodd"/><path fill="#0b1d3a" d="M 659.105469 397.644531 Z M 447.945312 304.640625 C 476.414062 317.925781 511.527344 322.671875 534.78125 354.9375 C 562.777344 393.375 592.671875 456.011719 627.785156 481.632812 C 652.460938 499.191406 680.457031 497.769531 715.570312 451.265625 C 713.671875 434.183594 710.824219 417.101562 706.554688 400.964844 C 701.335938 380.5625 694.691406 361.105469 685.675781 342.601562 L 661 393.375 L 659.105469 397.644531 C 656.257812 404.761719 644.867188 407.609375 640.121094 395.746094 L 639.648438 395.273438 L 603.585938 307.488281 C 589.351562 273.796875 574.164062 236.308594 562.300781 203.566406 C 537.152344 187.910156 509.632812 175.570312 480.683594 167.03125 C 477.839844 166.554688 474.992188 165.605469 472.144531 164.65625 C 461.703125 183.636719 448.894531 203.09375 439.878906 222.546875 C 413.777344 277.59375 425.640625 294.199219 447.945312 304.640625 Z M 447.945312 304.640625 " fill-opacity="1" fill-rule="evenodd"/><path fill="#0b1d3a" d="M 152.320312 373.445312 Z M 276.644531 351.617188 C 308.910156 299.894531 339.28125 221.125 297.046875 167.503906 C 276.644531 173.199219 257.1875 181.265625 239.15625 190.28125 C 228.71875 214.480469 216.855469 240.105469 204.992188 264.78125 L 169.402344 338.332031 L 152.320312 373.445312 L 150.421875 376.292969 L 150.421875 376.765625 L 149.949219 376.765625 L 149 377.714844 L 148.523438 377.714844 L 148.523438 378.191406 L 147.574219 378.191406 L 147.101562 378.664062 L 146.625 378.664062 L 146.152344 379.140625 L 140.457031 379.140625 L 139.980469 378.664062 L 139.035156 378.664062 L 139.035156 378.191406 L 138.558594 378.191406 L 138.085938 377.714844 L 137.609375 377.714844 L 137.609375 377.242188 L 137.136719 377.242188 L 136.1875 376.292969 L 133.8125 372.496094 L 108.664062 311.757812 C 91.582031 339.753906 78.769531 370.121094 70.703125 402.390625 C 80.667969 409.507812 90.632812 416.625 100.597656 422.792969 C 141.878906 446.046875 153.742188 446.996094 157.539062 439.878906 C 166.554688 424.21875 159.4375 380.085938 214.480469 376.765625 C 248.648438 374.867188 257.664062 381.984375 276.644531 351.617188 Z M 276.644531 351.617188 " fill-opacity="1" fill-rule="evenodd"/><path fill="#0b1d3a" d="M 145.203125 341.652344 C 171.773438 286.609375 196.449219 237.734375 222.074219 179.367188 C 238.207031 142.355469 250.070312 111.511719 250.070312 98.699219 C 250.070312 44.128906 205.941406 0 151.371094 0 C 97.277344 0 53.144531 44.128906 53.144531 98.699219 C 53.144531 123.375 90.15625 215.429688 120.050781 286.609375 L 139.507812 333.109375 L 144.253906 344.023438 Z M 198.347656 161.335938 C 156.589844 203.09375 84.9375 173.199219 84.9375 114.359375 C 84.9375 77.820312 114.832031 47.925781 151.371094 47.925781 C 210.683594 47.925781 240.105469 119.578125 198.347656 161.335938 Z M 198.347656 161.335938 " fill-opacity="1" fill-rule="evenodd"/><path fill="#0b1d3a" d="M 579.859375 193.601562 C 596.46875 238.207031 619.71875 294.675781 639.648438 342.601562 L 650.5625 368.699219 C 686.152344 294.675781 756.855469 154.691406 756.855469 122.898438 C 756.855469 68.332031 712.722656 24.199219 658.15625 24.199219 C 604.058594 24.199219 559.929688 68.332031 559.929688 122.898438 C 559.929688 134.289062 567.996094 160.859375 579.386719 192.652344 Z M 705.132812 185.535156 C 663.375 227.292969 591.722656 197.875 591.722656 139.035156 C 591.722656 102.019531 621.617188 72.601562 658.15625 72.601562 C 716.996094 72.601562 746.890625 144.253906 705.132812 185.535156 Z M 705.132812 185.535156 " fill-opacity="1" fill-rule="evenodd"/><path fill="#0b1d3a" d="M 612.125 139.035156 C 612.125 179.84375 661.949219 200.71875 690.894531 171.300781 C 708.929688 153.269531 708.929688 124.324219 690.894531 106.292969 C 661.949219 76.871094 612.125 97.75 612.125 139.035156 Z M 612.125 139.035156 " fill-opacity="1" fill-rule="evenodd"/><path fill="#0b1d3a" d="M 184.113281 147.101562 C 202.144531 129.070312 202.144531 99.648438 184.113281 81.617188 C 155.167969 52.671875 105.34375 73.550781 105.34375 114.359375 C 105.34375 155.640625 155.167969 176.046875 184.113281 147.101562 Z M 184.113281 147.101562 " fill-opacity="1" fill-rule="evenodd"/><g clip-path="url(#2967229861)"><g clip-path="url(#56898d42ea)"><g transform="matrix(1, 0, 0, 1, 164, 551)"><g clip-path="url(#276afe856e)"><g clip-path="url(#dffd02fcee)"><g clip-path="url(#ee107ed62a)"><rect x="-342.2" width="1166.4" fill="#0b1d3a" height="1166.39999" y="-729.199998" fill-opacity="1"/></g></g></g></g></g></g></svg>