<svg xmlns="http://www.w3.org/2000/svg" xmlns:xlink="http://www.w3.org/1999/xlink" width="1080" zoomAndPan="magnify" viewBox="0 0 810 809.999993" height="1080" preserveAspectRatio="xMidYMid meet" version="1.0"><defs><clipPath id="a5ec239678"><path d="M 240 252 L 569.964844 252 L 569.964844 558 L 240 558 Z M 240 252 " clip-rule="nonzero"/></clipPath><clipPath id="5999001a8e"><path d="M 240 505 L 569.964844 505 L 569.964844 809.996094 L 240 809.996094 Z M 240 505 " clip-rule="nonzero"/></clipPath><clipPath id="66aa4ef738"><path d="M 240 0 L 569.964844 0 L 569.964844 305 L 240 305 Z M 240 0 " clip-rule="nonzero"/></clipPath><clipPath id="d86fb9b87b"><path d="M 295 110.015625 L 391.84375 110.015625 L 391.84375 168.835938 L 295 168.835938 Z M 295 110.015625 " clip-rule="nonzero"/></clipPath><clipPath id="ce07400b0e"><path d="M 388.199219 120.824219 C 354.074219 132.898438 348.675781 135.226562 342.226562 138.601562 C 335.023438 142.273438 324.523438 148.425781 319.800781 151.726562 C 317.398438 153.375 316.648438 154.050781 314.699219 155.851562 C 311.476562 158.773438 305.699219 166.574219 302.699219 168.148438 C 301.425781 168.824219 300.449219 168.898438 299.398438 168.601562 C 298.050781 168.226562 296.023438 166.875 295.425781 165.523438 C 294.824219 164.175781 295.199219 161.773438 295.800781 160.5 C 296.324219 159.523438 297.449219 158.773438 298.425781 158.398438 C 299.476562 158.023438 300.75 157.875 301.875 158.25 C 303.148438 158.773438 304.949219 160.351562 305.398438 161.773438 C 305.851562 163.125 305.25 165.523438 304.5 166.648438 C 303.898438 167.625 302.699219 168.226562 301.648438 168.523438 C 300.601562 168.824219 299.25 168.675781 298.273438 168.300781 C 297.300781 167.851562 296.25 166.949219 295.726562 166.050781 C 295.199219 165.074219 294.898438 163.726562 295.050781 162.675781 C 295.199219 161.625 295.648438 160.875 296.550781 159.601562 C 298.574219 156.824219 305.25 150.898438 308.699219 147.976562 C 310.949219 146.101562 311.925781 145.425781 314.699219 143.625 C 319.875 140.25 330.675781 133.726562 338.175781 129.75 C 344.925781 126.226562 350.476562 123.675781 357.601562 120.75 C 366.074219 117.226562 380.699219 110.550781 385.726562 110.25 C 387.523438 110.175781 388.5 110.550781 389.476562 111.226562 C 390.449219 111.976562 391.351562 113.25 391.648438 114.449219 C 391.875 115.648438 391.648438 117.226562 391.125 118.273438 C 390.523438 119.324219 388.199219 120.824219 388.199219 120.824219 " clip-rule="nonzero"/></clipPath><clipPath id="46504a99b1"><path d="M 0 0.160156 L 96.84375 0.160156 L 96.84375 58.835938 L 0 58.835938 Z M 0 0.160156 " clip-rule="nonzero"/></clipPath><clipPath id="a35d192169"><path d="M 93.199219 10.824219 C 59.074219 22.898438 53.675781 25.226562 47.226562 28.601562 C 40.023438 32.273438 29.523438 38.425781 24.800781 41.726562 C 22.398438 43.375 21.648438 44.050781 19.699219 45.851562 C 16.476562 48.773438 10.699219 56.574219 7.699219 58.148438 C 6.425781 58.824219 5.449219 58.898438 4.398438 58.601562 C 3.050781 58.226562 1.023438 56.875 0.425781 55.523438 C -0.175781 54.175781 0.199219 51.773438 0.800781 50.5 C 1.324219 49.523438 2.449219 48.773438 3.425781 48.398438 C 4.476562 48.023438 5.75 47.875 6.875 48.25 C 8.148438 48.773438 9.949219 50.351562 10.398438 51.773438 C 10.851562 53.125 10.25 55.523438 9.5 56.648438 C 8.898438 57.625 7.699219 58.226562 6.648438 58.523438 C 5.601562 58.824219 4.25 58.675781 3.273438 58.300781 C 2.300781 57.851562 1.25 56.949219 0.726562 56.050781 C 0.199219 55.074219 -0.101562 53.726562 0.0507812 52.675781 C 0.199219 51.625 0.648438 50.875 1.550781 49.601562 C 3.574219 46.824219 10.25 40.898438 13.699219 37.976562 C 15.949219 36.101562 16.925781 35.425781 19.699219 33.625 C 24.875 30.25 35.675781 23.726562 43.175781 19.75 C 49.925781 16.226562 55.476562 13.675781 62.601562 10.75 C 71.074219 7.226562 85.699219 0.550781 90.726562 0.25 C 92.523438 0.175781 93.5 0.550781 94.476562 1.226562 C 95.449219 1.976562 96.351562 3.25 96.648438 4.449219 C 96.875 5.648438 96.648438 7.226562 96.125 8.273438 C 95.523438 9.324219 93.199219 10.824219 93.199219 10.824219 " clip-rule="nonzero"/></clipPath><clipPath id="d6abc8d823"><rect x="0" width="97" y="0" height="59"/></clipPath></defs><rect x="-81" width="972" fill="#ffffff" y="-80.999999" height="971.999992" fill-opacity="1"/><rect x="-81" width="972" fill="#ffffff" y="-80.999999" height="971.999992" fill-opacity="1"/><g clip-path="url(#a5ec239678)"><path fill="#0b1d3a" d="M 405.746094 252.882812 L 240.382812 418.664062 L 240.382812 557.113281 L 395.171875 401.921875 C 395.867188 401.226562 396.621094 400.605469 397.4375 400.058594 C 398.253906 399.511719 399.117188 399.050781 400.023438 398.671875 C 400.929688 398.296875 401.863281 398.011719 402.828125 397.820312 C 403.792969 397.628906 404.765625 397.53125 405.746094 397.53125 C 406.730469 397.53125 407.703125 397.628906 408.664062 397.820312 C 409.628906 398.011719 410.5625 398.296875 411.472656 398.671875 C 412.378906 399.050781 413.238281 399.511719 414.054688 400.058594 C 414.871094 400.605469 415.628906 401.226562 416.320312 401.921875 L 571.109375 557.082031 L 571.109375 418.632812 Z M 405.746094 252.882812 " fill-opacity="1" fill-rule="nonzero"/></g><g clip-path="url(#5999001a8e)"><path fill="#0b1d3a" d="M 240.382812 671.175781 L 240.382812 809.492188 L 395.171875 654.417969 C 395.867188 653.722656 396.621094 653.101562 397.4375 652.554688 C 398.253906 652.007812 399.117188 651.546875 400.023438 651.171875 C 400.929688 650.792969 401.863281 650.507812 402.828125 650.316406 C 403.792969 650.125 404.765625 650.03125 405.746094 650.03125 C 406.730469 650.03125 407.703125 650.125 408.664062 650.316406 C 409.628906 650.507812 410.5625 650.792969 411.472656 651.171875 C 412.378906 651.546875 413.238281 652.007812 414.054688 652.554688 C 414.871094 653.101562 415.628906 653.722656 416.320312 654.417969 L 571.109375 809.492188 L 571.109375 671.175781 L 405.746094 505.421875 Z M 240.382812 671.175781 " fill-opacity="1" fill-rule="nonzero"/></g><g clip-path="url(#66aa4ef738)"><path fill="#0b1d3a" d="M 240.382812 304.542969 L 395.171875 149.378906 C 395.867188 148.683594 396.621094 148.0625 397.4375 147.515625 C 398.253906 146.96875 399.117188 146.507812 400.023438 146.132812 C 400.929688 145.757812 401.863281 145.472656 402.828125 145.28125 C 403.792969 145.089844 404.765625 144.992188 405.746094 144.992188 C 406.730469 144.992188 407.703125 145.089844 408.664062 145.28125 C 409.628906 145.472656 410.5625 145.757812 411.472656 146.132812 C 412.378906 146.507812 413.238281 146.96875 414.054688 147.515625 C 414.871094 148.0625 415.628906 148.683594 416.320312 149.378906 L 571.109375 304.542969 L 571.109375 166.03125 L 405.746094 0.476562 L 240.382812 166.03125 Z M 240.382812 304.542969 " fill-opacity="1" fill-rule="nonzero"/></g><g clip-path="url(#d86fb9b87b)"><g clip-path="url(#ce07400b0e)"><g transform="matrix(1, 0, 0, 1, 295, 110)"><g clip-path="url(#d6abc8d823)"><g clip-path="url(#46504a99b1)"><g clip-path="url(#a35d192169)"><rect x="-473.2" width="1166.4" fill="#0b1d3a" height="1166.39999" y="-288.199998" fill-opacity="1"/></g></g></g></g></g></g></svg>