<svg xmlns="http://www.w3.org/2000/svg" xmlns:xlink="http://www.w3.org/1999/xlink" width="1080" zoomAndPan="magnify" viewBox="0 0 810 809.999993" height="1080" preserveAspectRatio="xMidYMid meet" version="1.0"><defs><clipPath id="1fc26afc7b"><path d="M 13 50 L 810 50 L 810 782.34375 L 13 782.34375 Z M 13 50 " clip-rule="nonzero"/></clipPath><clipPath id="71b1e47bbb"><path d="M 388.089844 612.265625 L 402.78125 612.265625 L 402.78125 632.574219 L 388.089844 632.574219 Z M 388.089844 612.265625 " clip-rule="nonzero"/></clipPath><clipPath id="0c2bed8c23"><path d="M 400.273438 617.625 C 402.75 627.226562 402.601562 628.050781 402.148438 628.949219 C 401.773438 629.773438 401.175781 630.675781 400.351562 631.273438 C 399.300781 631.949219 397.351562 632.550781 396.148438 632.550781 C 395.101562 632.550781 394.125 632.175781 393.300781 631.648438 C 392.476562 631.199219 391.574219 630.601562 391.125 629.550781 C 390.601562 627.976562 390.824219 623.773438 391.800781 622.273438 C 392.550781 621.074219 394.050781 620.476562 395.25 620.25 C 396.523438 620.023438 398.175781 620.324219 399.226562 620.773438 C 399.898438 621 400.351562 621.300781 400.875 621.898438 C 401.550781 622.726562 402.449219 624.226562 402.675781 625.425781 C 402.824219 626.699219 402.523438 628.273438 401.925781 629.398438 C 401.324219 630.449219 400.125 631.574219 399 632.023438 C 397.875 632.550781 396.074219 632.550781 395.023438 632.398438 C 394.273438 632.324219 393.824219 632.101562 393.226562 631.648438 C 392.324219 630.976562 391.125 629.699219 390.675781 628.574219 C 390.226562 627.375 390.300781 625.648438 390.523438 624.601562 C 390.675781 623.851562 390.898438 623.324219 391.425781 622.800781 C 392.101562 621.976562 393.375 620.773438 394.574219 620.398438 C 395.773438 620.023438 397.425781 620.101562 398.625 620.476562 C 399.75 620.925781 401.023438 621.898438 401.699219 622.949219 C 402.375 624 402.675781 625.726562 402.675781 626.773438 C 402.75 627.601562 402.375 628.800781 402.226562 628.800781 C 402 628.726562 401.625 623.175781 401.851562 623.101562 C 401.925781 623.101562 402.675781 625.050781 402.75 625.949219 C 402.75 626.925781 402.601562 628.050781 402.148438 628.949219 C 401.773438 629.773438 401.101562 630.675781 400.351562 631.273438 C 399.601562 631.875 398.625 632.324219 397.648438 632.476562 C 396.375 632.625 394.425781 632.25 393.300781 631.648438 C 392.324219 631.199219 391.800781 630.601562 391.125 629.550781 C 390 627.675781 388.726562 622.800781 388.351562 620.550781 C 388.125 619.273438 388.050781 618.523438 388.199219 617.550781 C 388.351562 616.574219 388.648438 615.601562 389.25 614.851562 C 390 613.875 391.5 612.75 392.773438 612.375 C 394.125 612.074219 395.925781 612.449219 397.050781 612.976562 C 398.023438 613.351562 398.699219 614.101562 399.226562 614.851562 C 399.75 615.675781 400.273438 617.625 400.273438 617.625 " clip-rule="nonzero"/></clipPath><clipPath id="769cb26e09"><path d="M 0.0898438 0.265625 L 14.78125 0.265625 L 14.78125 20.574219 L 0.0898438 20.574219 Z M 0.0898438 0.265625 " clip-rule="nonzero"/></clipPath><clipPath id="9ac9292ef6"><path d="M 12.273438 5.625 C 14.75 15.226562 14.601562 16.050781 14.148438 16.949219 C 13.773438 17.773438 13.175781 18.675781 12.351562 19.273438 C 11.300781 19.949219 9.351562 20.550781 8.148438 20.550781 C 7.101562 20.550781 6.125 20.175781 5.300781 19.648438 C 4.476562 19.199219 3.574219 18.601562 3.125 17.550781 C 2.601562 15.976562 2.824219 11.773438 3.800781 10.273438 C 4.550781 9.074219 6.050781 8.476562 7.25 8.25 C 8.523438 8.023438 10.175781 8.324219 11.226562 8.773438 C 11.898438 9 12.351562 9.300781 12.875 9.898438 C 13.550781 10.726562 14.449219 12.226562 14.675781 13.425781 C 14.824219 14.699219 14.523438 16.273438 13.925781 17.398438 C 13.324219 18.449219 12.125 19.574219 11 20.023438 C 9.875 20.550781 8.074219 20.550781 7.023438 20.398438 C 6.273438 20.324219 5.824219 20.101562 5.226562 19.648438 C 4.324219 18.976562 3.125 17.699219 2.675781 16.574219 C 2.226562 15.375 2.300781 13.648438 2.523438 12.601562 C 2.675781 11.851562 2.898438 11.324219 3.425781 10.800781 C 4.101562 9.976562 5.375 8.773438 6.574219 8.398438 C 7.773438 8.023438 9.425781 8.101562 10.625 8.476562 C 11.75 8.925781 13.023438 9.898438 13.699219 10.949219 C 14.375 12 14.675781 13.726562 14.675781 14.773438 C 14.75 15.601562 14.375 16.800781 14.226562 16.800781 C 14 16.726562 13.625 11.175781 13.851562 11.101562 C 13.925781 11.101562 14.675781 13.050781 14.75 13.949219 C 14.75 14.925781 14.601562 16.050781 14.148438 16.949219 C 13.773438 17.773438 13.101562 18.675781 12.351562 19.273438 C 11.601562 19.875 10.625 20.324219 9.648438 20.476562 C 8.375 20.625 6.425781 20.25 5.300781 19.648438 C 4.324219 19.199219 3.800781 18.601562 3.125 17.550781 C 2 15.675781 0.726562 10.800781 0.351562 8.550781 C 0.125 7.273438 0.0507812 6.523438 0.199219 5.550781 C 0.351562 4.574219 0.648438 3.601562 1.25 2.851562 C 2 1.875 3.5 0.75 4.773438 0.375 C 6.125 0.0742188 7.925781 0.449219 9.050781 0.976562 C 10.023438 1.351562 10.699219 2.101562 11.226562 2.851562 C 11.75 3.675781 12.273438 5.625 12.273438 5.625 " clip-rule="nonzero"/></clipPath><clipPath id="3886395a75"><rect x="0" width="15" y="0" height="21"/></clipPath><clipPath id="894a968ab9"><path d="M 386.097656 614.609375 L 402.765625 614.609375 L 402.765625 632.863281 L 386.097656 632.863281 Z M 386.097656 614.609375 " clip-rule="nonzero"/></clipPath><clipPath id="708af56c51"><path d="M 397.648438 618.074219 C 402.976562 626.851562 402.449219 628.574219 401.925781 629.699219 C 401.476562 630.601562 400.726562 631.351562 399.824219 631.875 C 398.699219 632.476562 396.75 632.851562 395.476562 632.699219 C 394.425781 632.625 393.523438 632.25 392.699219 631.574219 C 391.726562 630.75 390.675781 629.101562 390.375 627.824219 C 390.074219 626.625 390.226562 625.199219 390.75 624.074219 C 391.199219 622.949219 392.324219 621.75 393.375 621.148438 C 394.5 620.476562 396.226562 620.324219 397.273438 620.324219 C 398.101562 620.398438 398.625 620.550781 399.226562 620.925781 C 400.199219 621.449219 401.550781 622.574219 402.074219 623.773438 C 402.675781 624.898438 402.75 626.625 402.675781 627.675781 C 402.601562 628.425781 402.375 628.949219 401.925781 629.625 C 401.398438 630.523438 399.976562 631.800781 399 632.324219 C 398.324219 632.625 397.800781 632.773438 397.050781 632.773438 C 395.925781 632.773438 394.199219 632.550781 393.148438 631.875 C 392.101562 631.199219 391.050781 629.699219 390.601562 628.726562 C 390.300781 628.050781 390.226562 627.449219 390.226562 626.773438 C 390.226562 626.101562 390.226562 625.425781 390.523438 624.75 C 390.898438 623.773438 392.023438 622.199219 392.851562 621.449219 C 393.375 621 393.898438 620.773438 394.648438 620.550781 C 395.699219 620.324219 397.425781 620.25 398.625 620.625 C 399.824219 621.074219 401.101562 622.273438 401.773438 623.175781 C 402.300781 623.851562 402.523438 624.523438 402.601562 625.273438 C 402.824219 626.175781 402.824219 627.300781 402.523438 628.273438 C 402.074219 629.476562 400.875 631.125 399.824219 631.875 C 399 632.476562 397.949219 632.699219 396.976562 632.773438 C 396 632.851562 394.949219 632.699219 394.050781 632.324219 C 393.148438 631.949219 392.25 631.273438 391.648438 630.523438 C 391.050781 629.773438 390.449219 627.75 390.375 627.824219 C 390.226562 627.824219 391.199219 630.824219 390.976562 630.898438 C 390.75 630.976562 388.273438 626.925781 387.449219 625.050781 C 386.773438 623.476562 386.101562 621.75 386.101562 620.398438 C 386.101562 619.351562 386.476562 618.449219 386.925781 617.625 C 387.375 616.800781 388.050781 616.050781 388.949219 615.523438 C 390 614.925781 391.949219 614.550781 393.148438 614.699219 C 394.125 614.773438 395.101562 615.300781 395.851562 615.824219 C 396.601562 616.425781 397.648438 618.074219 397.648438 618.074219 " clip-rule="nonzero"/></clipPath><clipPath id="bc42b97753"><path d="M 0.0976562 0.609375 L 16.765625 0.609375 L 16.765625 18.863281 L 0.0976562 18.863281 Z M 0.0976562 0.609375 " clip-rule="nonzero"/></clipPath><clipPath id="95dd51cd77"><path d="M 11.648438 4.074219 C 16.976562 12.851562 16.449219 14.574219 15.925781 15.699219 C 15.476562 16.601562 14.726562 17.351562 13.824219 17.875 C 12.699219 18.476562 10.75 18.851562 9.476562 18.699219 C 8.425781 18.625 7.523438 18.25 6.699219 17.574219 C 5.726562 16.75 4.675781 15.101562 4.375 13.824219 C 4.074219 12.625 4.226562 11.199219 4.75 10.074219 C 5.199219 8.949219 6.324219 7.75 7.375 7.148438 C 8.5 6.476562 10.226562 6.324219 11.273438 6.324219 C 12.101562 6.398438 12.625 6.550781 13.226562 6.925781 C 14.199219 7.449219 15.550781 8.574219 16.074219 9.773438 C 16.675781 10.898438 16.75 12.625 16.675781 13.675781 C 16.601562 14.425781 16.375 14.949219 15.925781 15.625 C 15.398438 16.523438 13.976562 17.800781 13 18.324219 C 12.324219 18.625 11.800781 18.773438 11.050781 18.773438 C 9.925781 18.773438 8.199219 18.550781 7.148438 17.875 C 6.101562 17.199219 5.050781 15.699219 4.601562 14.726562 C 4.300781 14.050781 4.226562 13.449219 4.226562 12.773438 C 4.226562 12.101562 4.226562 11.425781 4.523438 10.75 C 4.898438 9.773438 6.023438 8.199219 6.851562 7.449219 C 7.375 7 7.898438 6.773438 8.648438 6.550781 C 9.699219 6.324219 11.425781 6.25 12.625 6.625 C 13.824219 7.074219 15.101562 8.273438 15.773438 9.175781 C 16.300781 9.851562 16.523438 10.523438 16.601562 11.273438 C 16.824219 12.175781 16.824219 13.300781 16.523438 14.273438 C 16.074219 15.476562 14.875 17.125 13.824219 17.875 C 13 18.476562 11.949219 18.699219 10.976562 18.773438 C 10 18.851562 8.949219 18.699219 8.050781 18.324219 C 7.148438 17.949219 6.25 17.273438 5.648438 16.523438 C 5.050781 15.773438 4.449219 13.75 4.375 13.824219 C 4.226562 13.824219 5.199219 16.824219 4.976562 16.898438 C 4.75 16.976562 2.273438 12.925781 1.449219 11.050781 C 0.773438 9.476562 0.101562 7.75 0.101562 6.398438 C 0.101562 5.351562 0.476562 4.449219 0.925781 3.625 C 1.375 2.800781 2.050781 2.050781 2.949219 1.523438 C 4 0.925781 5.949219 0.550781 7.148438 0.699219 C 8.125 0.773438 9.101562 1.300781 9.851562 1.824219 C 10.601562 2.425781 11.648438 4.074219 11.648438 4.074219 " clip-rule="nonzero"/></clipPath><clipPath id="8c2767f533"><rect x="0" width="17" y="0" height="19"/></clipPath><clipPath id="2b9d118c6b"><path d="M 387.28125 610.03125 L 413.335938 610.03125 L 413.335938 633.875 L 387.28125 633.875 Z M 387.28125 610.03125 " clip-rule="nonzero"/></clipPath><clipPath id="21f3251793"><path d="M 387.375 618.675781 C 388.574219 615 391.648438 610.351562 393.75 610.125 C 395.699219 609.898438 398.101562 612.976562 399.824219 614.625 C 401.476562 616.125 404.101562 619.574219 403.949219 619.648438 C 403.875 619.726562 400.875 615.226562 399.074219 614.925781 C 397.351562 614.550781 393.523438 617.398438 393.449219 617.25 C 393.375 617.101562 396.976562 613.875 399 613.5 C 401.101562 613.199219 403.949219 614.175781 405.824219 615.375 C 407.699219 616.5 409.125 618.75 410.398438 620.550781 C 411.523438 622.199219 412.726562 623.925781 413.101562 625.648438 C 413.398438 627.074219 413.324219 628.574219 412.800781 629.851562 C 412.273438 631.050781 411.148438 632.324219 410.023438 633 C 408.898438 633.675781 407.25 633.976562 405.898438 633.824219 C 404.550781 633.675781 402.976562 632.699219 402.074219 632.023438 C 401.476562 631.5 401.175781 631.050781 400.800781 630.300781 C 400.425781 629.25 399.976562 627.449219 400.199219 626.101562 C 400.425781 624.824219 401.476562 623.25 402.226562 622.425781 C 402.824219 621.824219 403.425781 621.523438 404.023438 621.226562 C 404.699219 621 405.300781 620.699219 406.125 620.699219 C 407.25 620.699219 409.050781 621 410.175781 621.675781 C 411.300781 622.425781 412.425781 623.699219 412.875 624.976562 C 413.324219 626.175781 413.25 628.050781 413.023438 629.175781 C 412.875 629.925781 412.648438 630.449219 412.125 631.050781 C 411.375 631.949219 409.949219 633.148438 408.75 633.601562 C 407.476562 633.976562 405.75 633.976562 404.476562 633.523438 C 403.273438 633.074219 402.300781 632.101562 401.175781 630.898438 C 399.675781 629.324219 396.226562 625.5 396.75 624.449219 C 397.273438 623.550781 403.648438 624.226562 403.726562 624.675781 C 403.875 625.199219 399.375 628.050781 397.199219 627.449219 C 394.273438 626.699219 388.050781 617.925781 388.800781 616.648438 C 389.476562 615.523438 398.773438 617.324219 399.675781 619.050781 C 400.351562 620.175781 398.773438 622.574219 398.023438 623.699219 C 397.351562 624.523438 396.523438 625.050781 395.699219 625.425781 C 394.800781 625.800781 393.75 625.949219 392.773438 625.875 C 391.875 625.800781 390.824219 625.5 390.074219 624.976562 C 389.25 624.449219 388.5 623.773438 388.050781 622.875 C 387.523438 621.75 387.375 618.675781 387.375 618.675781 " clip-rule="nonzero"/></clipPath><clipPath id="7595ea4f66"><path d="M 0.359375 0.03125 L 26.335938 0.03125 L 26.335938 23.875 L 0.359375 23.875 Z M 0.359375 0.03125 " clip-rule="nonzero"/></clipPath><clipPath id="8c97cc8daa"><path d="M 0.375 8.675781 C 1.574219 5 4.648438 0.351562 6.75 0.125 C 8.699219 -0.101562 11.101562 2.976562 12.824219 4.625 C 14.476562 6.125 17.101562 9.574219 16.949219 9.648438 C 16.875 9.726562 13.875 5.226562 12.074219 4.925781 C 10.351562 4.550781 6.523438 7.398438 6.449219 7.25 C 6.375 7.101562 9.976562 3.875 12 3.5 C 14.101562 3.199219 16.949219 4.175781 18.824219 5.375 C 20.699219 6.5 22.125 8.75 23.398438 10.550781 C 24.523438 12.199219 25.726562 13.925781 26.101562 15.648438 C 26.398438 17.074219 26.324219 18.574219 25.800781 19.851562 C 25.273438 21.050781 24.148438 22.324219 23.023438 23 C 21.898438 23.675781 20.25 23.976562 18.898438 23.824219 C 17.550781 23.675781 15.976562 22.699219 15.074219 22.023438 C 14.476562 21.5 14.175781 21.050781 13.800781 20.300781 C 13.425781 19.25 12.976562 17.449219 13.199219 16.101562 C 13.425781 14.824219 14.476562 13.25 15.226562 12.425781 C 15.824219 11.824219 16.425781 11.523438 17.023438 11.226562 C 17.699219 11 18.300781 10.699219 19.125 10.699219 C 20.25 10.699219 22.050781 11 23.175781 11.675781 C 24.300781 12.425781 25.425781 13.699219 25.875 14.976562 C 26.324219 16.175781 26.25 18.050781 26.023438 19.175781 C 25.875 19.925781 25.648438 20.449219 25.125 21.050781 C 24.375 21.949219 22.949219 23.148438 21.75 23.601562 C 20.476562 23.976562 18.75 23.976562 17.476562 23.523438 C 16.273438 23.074219 15.300781 22.101562 14.175781 20.898438 C 12.675781 19.324219 9.226562 15.5 9.75 14.449219 C 10.273438 13.550781 16.648438 14.226562 16.726562 14.675781 C 16.875 15.199219 12.375 18.050781 10.199219 17.449219 C 7.273438 16.699219 1.050781 7.925781 1.800781 6.648438 C 2.476562 5.523438 11.773438 7.324219 12.675781 9.050781 C 13.351562 10.175781 11.773438 12.574219 11.023438 13.699219 C 10.351562 14.523438 9.523438 15.050781 8.699219 15.425781 C 7.800781 15.800781 6.75 15.949219 5.773438 15.875 C 4.875 15.800781 3.824219 15.5 3.074219 14.976562 C 2.25 14.449219 1.5 13.773438 1.050781 12.875 C 0.523438 11.75 0.375 8.675781 0.375 8.675781 " clip-rule="nonzero"/></clipPath><clipPath id="032ec15c77"><rect x="0" width="27" y="0" height="24"/></clipPath><clipPath id="baf9f6c071"><path d="M 379.601562 613.75 L 420.359375 613.75 L 420.359375 636.808594 L 379.601562 636.808594 Z M 379.601562 613.75 " clip-rule="nonzero"/></clipPath><clipPath id="e165ea2011"><path d="M 411.375 632.023438 C 403.425781 625.273438 406.648438 621.375 407.550781 621.601562 C 408.601562 621.824219 409.875 628.273438 409.125 630.75 C 408.449219 632.851562 406.726562 634.726562 404.25 635.699219 C 400.125 637.425781 388.425781 636.675781 384.601562 635.398438 C 382.800781 634.875 381.824219 634.050781 381 632.925781 C 380.175781 631.875 379.726562 630 379.648438 628.800781 C 379.574219 627.976562 379.648438 627.375 380.023438 626.625 C 380.476562 625.5 381.523438 623.925781 382.648438 623.175781 C 383.773438 622.351562 385.5 621.898438 386.851562 621.976562 C 388.273438 622.050781 390 622.949219 390.976562 623.625 C 391.648438 624.148438 392.023438 624.675781 392.398438 625.351562 C 392.773438 625.949219 393.074219 626.550781 393.226562 627.375 C 393.375 628.574219 393.300781 630.449219 392.699219 631.726562 C 392.101562 633 390.898438 634.273438 389.699219 634.875 C 388.425781 635.550781 386.550781 635.699219 385.351562 635.625 C 384.523438 635.550781 383.925781 635.324219 383.25 634.875 C 382.273438 634.199219 380.851562 632.925781 380.25 631.648438 C 379.648438 630.449219 379.5 628.648438 379.800781 627.300781 C 380.101562 625.949219 381 624.449219 382.050781 623.625 C 383.101562 622.726562 384.300781 622.273438 386.175781 621.976562 C 389.773438 621.375 402.148438 620.851562 402.824219 622.5 C 403.273438 623.550781 398.925781 625.425781 398.476562 627.375 C 397.949219 629.324219 400.574219 633.898438 399.976562 634.273438 C 399.449219 634.574219 396.523438 631.875 395.625 630.148438 C 394.648438 628.199219 394.648438 625.273438 394.726562 622.949219 C 394.800781 620.773438 394.726562 618 396 616.425781 C 397.351562 614.851562 400.5 613.875 402.75 613.800781 C 404.851562 613.726562 406.726562 614.625 408.898438 615.675781 C 411.824219 617.101562 416.550781 620.324219 418.273438 622.125 C 419.175781 623.023438 419.625 623.625 419.925781 624.523438 C 420.300781 625.425781 420.449219 626.476562 420.300781 627.449219 C 420.074219 628.648438 419.101562 630.375 418.199219 631.273438 C 417.523438 631.949219 416.625 632.398438 415.648438 632.550781 C 414.449219 632.773438 411.375 632.023438 411.375 632.023438 " clip-rule="nonzero"/></clipPath><clipPath id="d407e67f84"><path d="M 0.601562 0.75 L 41.359375 0.75 L 41.359375 23.808594 L 0.601562 23.808594 Z M 0.601562 0.75 " clip-rule="nonzero"/></clipPath><clipPath id="2c9a3f0d98"><path d="M 32.375 19.023438 C 24.425781 12.273438 27.648438 8.375 28.550781 8.601562 C 29.601562 8.824219 30.875 15.273438 30.125 17.75 C 29.449219 19.851562 27.726562 21.726562 25.25 22.699219 C 21.125 24.425781 9.425781 23.675781 5.601562 22.398438 C 3.800781 21.875 2.824219 21.050781 2 19.925781 C 1.175781 18.875 0.726562 17 0.648438 15.800781 C 0.574219 14.976562 0.648438 14.375 1.023438 13.625 C 1.476562 12.5 2.523438 10.925781 3.648438 10.175781 C 4.773438 9.351562 6.5 8.898438 7.851562 8.976562 C 9.273438 9.050781 11 9.949219 11.976562 10.625 C 12.648438 11.148438 13.023438 11.675781 13.398438 12.351562 C 13.773438 12.949219 14.074219 13.550781 14.226562 14.375 C 14.375 15.574219 14.300781 17.449219 13.699219 18.726562 C 13.101562 20 11.898438 21.273438 10.699219 21.875 C 9.425781 22.550781 7.550781 22.699219 6.351562 22.625 C 5.523438 22.550781 4.925781 22.324219 4.25 21.875 C 3.273438 21.199219 1.851562 19.925781 1.25 18.648438 C 0.648438 17.449219 0.5 15.648438 0.800781 14.300781 C 1.101562 12.949219 2 11.449219 3.050781 10.625 C 4.101562 9.726562 5.300781 9.273438 7.175781 8.976562 C 10.773438 8.375 23.148438 7.851562 23.824219 9.5 C 24.273438 10.550781 19.925781 12.425781 19.476562 14.375 C 18.949219 16.324219 21.574219 20.898438 20.976562 21.273438 C 20.449219 21.574219 17.523438 18.875 16.625 17.148438 C 15.648438 15.199219 15.648438 12.273438 15.726562 9.949219 C 15.800781 7.773438 15.726562 5 17 3.425781 C 18.351562 1.851562 21.5 0.875 23.75 0.800781 C 25.851562 0.726562 27.726562 1.625 29.898438 2.675781 C 32.824219 4.101562 37.550781 7.324219 39.273438 9.125 C 40.175781 10.023438 40.625 10.625 40.925781 11.523438 C 41.300781 12.425781 41.449219 13.476562 41.300781 14.449219 C 41.074219 15.648438 40.101562 17.375 39.199219 18.273438 C 38.523438 18.949219 37.625 19.398438 36.648438 19.550781 C 35.449219 19.773438 32.375 19.023438 32.375 19.023438 " clip-rule="nonzero"/></clipPath><clipPath id="a5c2dd6dd2"><rect x="0" width="42" y="0" height="24"/></clipPath><clipPath id="3e1b9ee042"><path d="M 384.675781 613.234375 L 403.351562 613.234375 L 403.351562 631.632812 L 384.675781 631.632812 Z M 384.675781 613.234375 " clip-rule="nonzero"/></clipPath><clipPath id="83564181b8"><path d="M 387.375 625.273438 C 384.75 620.550781 384.601562 619.648438 384.75 618.601562 C 385.050781 617.398438 385.949219 615.675781 386.925781 614.773438 C 387.601562 614.101562 388.574219 613.648438 389.550781 613.5 C 390.449219 613.273438 391.574219 613.273438 392.476562 613.5 C 393.375 613.800781 394.425781 614.476562 395.023438 614.925781 C 395.476562 615.300781 395.851562 615.601562 396 616.050781 C 396.226562 616.800781 395.101562 618.523438 395.550781 619.125 C 396.074219 619.800781 398.398438 618.976562 399.601562 619.5 C 400.726562 620.023438 401.925781 621.375 402.523438 622.273438 C 402.976562 622.949219 403.125 623.550781 403.199219 624.226562 C 403.351562 624.898438 403.425781 625.5 403.199219 626.25 C 402.976562 627.300781 402.300781 628.949219 401.398438 629.851562 C 400.425781 630.75 399 631.425781 397.726562 631.574219 C 396.449219 631.726562 394.726562 631.199219 393.75 630.75 C 393.074219 630.375 392.699219 630.074219 392.175781 629.398438 C 391.574219 628.574219 390.824219 626.773438 390.675781 625.648438 C 390.601562 624.898438 390.601562 624.375 390.898438 623.625 C 391.273438 622.648438 392.324219 621 393.148438 620.324219 C 393.675781 619.800781 394.199219 619.5 394.949219 619.351562 C 396 619.050781 397.726562 618.898438 398.925781 619.273438 C 400.199219 619.648438 401.476562 620.851562 402.226562 621.675781 C 402.675781 622.273438 402.898438 622.800781 403.050781 623.550781 C 403.273438 624.601562 403.351562 626.398438 402.898438 627.601562 C 402.449219 628.800781 401.175781 630 400.273438 630.675781 C 399.675781 631.125 399.226562 631.425781 398.398438 631.425781 C 396.675781 631.5 392.398438 630.375 390.300781 628.875 C 388.273438 627.449219 386.625 624.523438 385.726562 622.875 C 385.199219 621.824219 384.824219 621.148438 384.75 620.101562 C 384.675781 618.824219 385.125 617.023438 385.875 615.898438 C 386.699219 614.773438 388.351562 613.800781 389.550781 613.5 C 390.523438 613.199219 391.574219 613.273438 392.476562 613.5 C 393.375 613.800781 394.199219 614.175781 395.023438 614.925781 C 396.226562 616.050781 397.800781 618.523438 398.324219 620.023438 C 398.699219 621.074219 398.699219 622.050781 398.550781 622.949219 C 398.398438 623.851562 398.101562 624.824219 397.425781 625.648438 C 396.601562 626.550781 394.949219 627.601562 393.75 627.976562 C 392.773438 628.199219 391.800781 628.199219 390.898438 627.824219 C 389.699219 627.449219 387.375 625.273438 387.375 625.273438 " clip-rule="nonzero"/></clipPath><clipPath id="5a8f720239"><path d="M 0.675781 0.234375 L 19.351562 0.234375 L 19.351562 18.632812 L 0.675781 18.632812 Z M 0.675781 0.234375 " clip-rule="nonzero"/></clipPath><clipPath id="3b1d746b4c"><path d="M 3.375 12.273438 C 0.75 7.550781 0.601562 6.648438 0.75 5.601562 C 1.050781 4.398438 1.949219 2.675781 2.925781 1.773438 C 3.601562 1.101562 4.574219 0.648438 5.550781 0.5 C 6.449219 0.273438 7.574219 0.273438 8.476562 0.5 C 9.375 0.800781 10.425781 1.476562 11.023438 1.925781 C 11.476562 2.300781 11.851562 2.601562 12 3.050781 C 12.226562 3.800781 11.101562 5.523438 11.550781 6.125 C 12.074219 6.800781 14.398438 5.976562 15.601562 6.5 C 16.726562 7.023438 17.925781 8.375 18.523438 9.273438 C 18.976562 9.949219 19.125 10.550781 19.199219 11.226562 C 19.351562 11.898438 19.425781 12.5 19.199219 13.25 C 18.976562 14.300781 18.300781 15.949219 17.398438 16.851562 C 16.425781 17.75 15 18.425781 13.726562 18.574219 C 12.449219 18.726562 10.726562 18.199219 9.75 17.75 C 9.074219 17.375 8.699219 17.074219 8.175781 16.398438 C 7.574219 15.574219 6.824219 13.773438 6.675781 12.648438 C 6.601562 11.898438 6.601562 11.375 6.898438 10.625 C 7.273438 9.648438 8.324219 8 9.148438 7.324219 C 9.675781 6.800781 10.199219 6.5 10.949219 6.351562 C 12 6.050781 13.726562 5.898438 14.925781 6.273438 C 16.199219 6.648438 17.476562 7.851562 18.226562 8.675781 C 18.675781 9.273438 18.898438 9.800781 19.050781 10.550781 C 19.273438 11.601562 19.351562 13.398438 18.898438 14.601562 C 18.449219 15.800781 17.175781 17 16.273438 17.675781 C 15.675781 18.125 15.226562 18.425781 14.398438 18.425781 C 12.675781 18.5 8.398438 17.375 6.300781 15.875 C 4.273438 14.449219 2.625 11.523438 1.726562 9.875 C 1.199219 8.824219 0.824219 8.148438 0.75 7.101562 C 0.675781 5.824219 1.125 4.023438 1.875 2.898438 C 2.699219 1.773438 4.351562 0.800781 5.550781 0.5 C 6.523438 0.199219 7.574219 0.273438 8.476562 0.5 C 9.375 0.800781 10.199219 1.175781 11.023438 1.925781 C 12.226562 3.050781 13.800781 5.523438 14.324219 7.023438 C 14.699219 8.074219 14.699219 9.050781 14.550781 9.949219 C 14.398438 10.851562 14.101562 11.824219 13.425781 12.648438 C 12.601562 13.550781 10.949219 14.601562 9.75 14.976562 C 8.773438 15.199219 7.800781 15.199219 6.898438 14.824219 C 5.699219 14.449219 3.375 12.273438 3.375 12.273438 " clip-rule="nonzero"/></clipPath><clipPath id="2e61beb722"><rect x="0" width="20" y="0" height="19"/></clipPath></defs><g clip-path="url(#1fc26afc7b)"><path fill="#0b1d3a" d="M 803.773438 55.425781 C 794.484375 55.425781 574.949219 27.28125 494.167969 108.621094 C 413.390625 189.964844 454.765625 312.117188 456.734375 317.183594 C 443.539062 336.03125 431.890625 355.792969 421.792969 376.464844 C 411.691406 397.136719 403.261719 418.472656 396.5 440.464844 C 390.347656 423.890625 383.027344 407.847656 374.546875 392.335938 C 374.546875 387.269531 392.84375 270.742188 307.277344 207.414062 C 221.714844 144.085938 30.605469 174.484375 22.441406 175.890625 C 21.40625 176.03125 20.414062 176.3125 19.460938 176.734375 C 18.503906 177.160156 17.628906 177.707031 16.832031 178.378906 C 16.035156 179.054688 15.347656 179.824219 14.769531 180.695312 C 14.191406 181.5625 13.746094 182.496094 13.433594 183.492188 C 13.160156 184.449219 13.027344 185.429688 13.039062 186.425781 C 13.050781 187.421875 13.207031 188.398438 13.507812 189.347656 C 13.808594 190.300781 14.242188 191.1875 14.804688 192.011719 C 15.367188 192.835938 16.035156 193.558594 16.8125 194.1875 C 29.046875 206.917969 40.609375 220.230469 51.507812 234.121094 C 62.40625 248.011719 72.582031 262.414062 82.035156 277.324219 C 91.488281 292.238281 100.171875 307.585938 108.085938 323.367188 C 116 339.152344 123.101562 355.292969 129.398438 371.789062 C 130.988281 375.566406 132.785156 379.25 134.777344 382.832031 C 136.773438 386.417969 138.957031 389.882812 141.332031 393.226562 C 143.707031 396.574219 146.253906 399.777344 148.980469 402.847656 C 151.703125 405.914062 154.585938 408.820312 157.628906 411.574219 C 160.671875 414.324219 163.855469 416.902344 167.179688 419.304688 C 170.503906 421.707031 173.949219 423.925781 177.515625 425.949219 C 181.082031 427.976562 184.746094 429.804688 188.511719 431.429688 C 192.277344 433.058594 196.121094 434.472656 200.042969 435.679688 C 213.597656 439.972656 227.480469 442.035156 241.699219 441.871094 C 251.914062 441.457031 262.058594 440.402344 272.136719 438.695312 C 282.214844 436.992188 292.144531 434.65625 301.929688 431.691406 C 311.710938 428.722656 321.261719 425.144531 330.589844 420.960938 C 339.917969 416.777344 348.941406 412.019531 357.660156 406.6875 C 369.878906 430.382812 379.261719 455.152344 385.804688 480.996094 C 383.570312 493.578125 382.125 506.25 381.476562 519.011719 C 380.828125 531.777344 380.980469 544.53125 381.929688 557.273438 C 382.878906 570.019531 384.617188 582.652344 387.152344 595.179688 C 389.683594 607.707031 392.988281 620.027344 397.066406 632.136719 C 397.417969 633.203125 397.929688 634.1875 398.589844 635.089844 C 399.253906 635.996094 400.042969 636.773438 400.949219 637.429688 C 401.859375 638.085938 402.847656 638.589844 403.914062 638.933594 C 404.980469 639.28125 406.074219 639.453125 407.199219 639.457031 L 410.574219 639.457031 C 411.222656 639.234375 411.839844 638.953125 412.433594 638.609375 C 413.023438 638.265625 413.574219 637.867188 414.085938 637.414062 C 414.601562 636.960938 415.0625 636.464844 415.480469 635.917969 C 415.894531 635.375 416.25 634.796875 416.550781 634.183594 C 416.851562 633.566406 417.089844 632.929688 417.265625 632.269531 C 417.441406 631.609375 417.546875 630.9375 417.589844 630.253906 C 417.632812 629.570312 417.609375 628.890625 417.519531 628.214844 C 417.425781 627.535156 417.269531 626.875 417.046875 626.226562 C 413.253906 614.679688 410.199219 602.941406 407.878906 591.007812 C 405.5625 579.078125 404 567.046875 403.191406 554.917969 C 402.382812 542.789062 402.339844 530.660156 403.058594 518.523438 C 403.773438 506.390625 405.25 494.351562 407.480469 482.402344 C 410.238281 468.570312 413.730469 454.929688 417.960938 441.476562 C 422.195312 428.023438 427.136719 414.839844 432.792969 401.921875 C 438.445312 389 444.78125 376.425781 451.792969 364.191406 C 458.808594 351.953125 466.457031 340.132812 474.746094 328.722656 C 491.519531 334.96875 508.691406 339.789062 526.261719 343.191406 C 543.832031 346.59375 561.5625 348.523438 579.449219 348.988281 C 586.253906 349.125 593.042969 348.855469 599.8125 348.171875 C 606.585938 347.488281 613.292969 346.398438 619.929688 344.90625 C 626.570312 343.410156 633.097656 341.523438 639.507812 339.238281 C 645.917969 336.957031 652.167969 334.296875 658.257812 331.257812 C 662.09375 329.285156 665.8125 327.117188 669.414062 324.746094 C 673.015625 322.375 676.480469 319.816406 679.804688 317.070312 C 683.132812 314.328125 686.300781 311.414062 689.3125 308.328125 C 692.324219 305.242188 695.164062 302.007812 697.828125 298.617188 C 700.492188 295.226562 702.964844 291.703125 705.25 288.046875 C 707.535156 284.386719 709.617188 280.621094 711.496094 276.738281 C 713.375 272.859375 715.039062 268.886719 716.492188 264.828125 C 717.945312 260.765625 719.171875 256.640625 720.179688 252.449219 C 753.675781 111.71875 807.152344 75.972656 807.433594 75.691406 C 807.894531 75.410156 808.332031 75.089844 808.746094 74.738281 C 809.15625 74.382812 809.539062 74 809.890625 73.585938 C 810.238281 73.171875 810.554688 72.730469 810.832031 72.265625 C 811.113281 71.800781 811.351562 71.316406 811.554688 70.8125 C 811.757812 70.308594 811.917969 69.789062 812.035156 69.261719 C 812.152344 68.730469 812.230469 68.195312 812.261719 67.652344 C 812.292969 67.109375 812.28125 66.570312 812.226562 66.03125 C 812.175781 65.488281 812.078125 64.957031 811.9375 64.433594 C 811.8125 63.351562 811.527344 62.3125 811.078125 61.316406 C 810.628906 60.324219 810.039062 59.421875 809.304688 58.617188 C 808.574219 57.808594 807.734375 57.132812 806.789062 56.585938 C 805.847656 56.042969 804.839844 55.65625 803.773438 55.425781 Z M 206.234375 416.257812 C 203.101562 415.210938 200.03125 414 197.023438 412.625 C 194.019531 411.25 191.09375 409.71875 188.253906 408.03125 C 185.410156 406.339844 182.664062 404.507812 180.019531 402.527344 C 177.371094 400.546875 174.839844 398.429688 172.417969 396.179688 C 170 393.929688 167.703125 391.554688 165.539062 389.058594 C 163.371094 386.5625 161.34375 383.957031 159.453125 381.246094 C 157.5625 378.535156 155.824219 375.730469 154.234375 372.832031 C 152.644531 369.933594 151.214844 366.957031 149.941406 363.90625 C 137.570312 333.164062 122.789062 303.625 105.597656 275.292969 C 88.410156 246.960938 69.042969 220.207031 47.492188 195.03125 C 97.871094 188.558594 232.691406 178.988281 294.894531 224.585938 C 297.402344 226.675781 299.847656 228.835938 302.230469 231.070312 C 304.613281 233.300781 306.929688 235.601562 309.179688 237.96875 C 311.425781 240.335938 313.605469 242.765625 315.714844 245.257812 C 317.824219 247.75 319.855469 250.304688 321.816406 252.914062 C 323.777344 255.527344 325.660156 258.191406 327.464844 260.914062 C 329.273438 263.632812 330.996094 266.402344 332.640625 269.222656 C 334.285156 272.046875 335.847656 274.910156 337.328125 277.820312 C 338.804688 280.734375 340.199219 283.683594 341.507812 286.675781 C 342.8125 289.667969 344.035156 292.695312 345.164062 295.757812 C 346.296875 298.820312 347.339844 301.914062 348.292969 305.039062 C 349.242188 308.160156 350.105469 311.308594 350.875 314.480469 C 351.644531 317.65625 352.320312 320.847656 352.90625 324.058594 C 353.492188 327.273438 353.984375 330.5 354.378906 333.738281 C 354.777344 336.980469 355.082031 340.230469 355.289062 343.488281 C 355.5 346.746094 355.613281 350.007812 355.632812 353.273438 C 355.652344 356.539062 355.578125 359.800781 355.410156 363.0625 C 349.742188 354.710938 343.5 346.8125 336.6875 339.367188 C 329.875 331.921875 322.5625 325.003906 314.746094 318.621094 C 306.929688 312.234375 298.695312 306.445312 290.042969 301.253906 C 281.386719 296.0625 272.402344 291.519531 263.089844 287.632812 C 262.425781 287.429688 261.746094 287.289062 261.050781 287.21875 C 260.359375 287.144531 259.667969 287.136719 258.972656 287.195312 C 258.28125 287.253906 257.597656 287.378906 256.925781 287.566406 C 256.257812 287.753906 255.609375 288.003906 254.988281 288.316406 C 254.367188 288.625 253.777344 288.992188 253.226562 289.417969 C 252.671875 289.839844 252.164062 290.3125 251.703125 290.832031 C 251.238281 291.351562 250.828125 291.910156 250.472656 292.507812 C 250.113281 293.105469 249.816406 293.730469 249.578125 294.386719 C 249.359375 295.050781 249.207031 295.730469 249.117188 296.429688 C 249.03125 297.125 249.011719 297.820312 249.0625 298.519531 C 249.113281 299.21875 249.230469 299.90625 249.417969 300.582031 C 249.601562 301.257812 249.851562 301.910156 250.164062 302.539062 C 250.476562 303.164062 250.851562 303.753906 251.28125 304.308594 C 251.710938 304.863281 252.1875 305.371094 252.71875 305.828125 C 253.246094 306.289062 253.816406 306.691406 254.425781 307.039062 C 255.035156 307.386719 255.671875 307.671875 256.335938 307.894531 C 265.695312 312.066406 274.683594 316.925781 283.300781 322.476562 C 291.914062 328.03125 300.054688 334.207031 307.714844 341.011719 C 315.378906 347.816406 322.480469 355.167969 329.011719 363.0625 C 335.542969 370.960938 341.433594 379.308594 346.683594 388.113281 C 279.414062 425.828125 233.535156 424.421875 206.234375 416.257812 Z M 700.195312 247.382812 C 699.363281 250.835938 698.34375 254.234375 697.140625 257.578125 C 695.941406 260.921875 694.5625 264.1875 693.003906 267.382812 C 691.449219 270.578125 689.726562 273.675781 687.835938 276.683594 C 685.945312 279.691406 683.898438 282.589844 681.691406 285.375 C 679.488281 288.160156 677.140625 290.820312 674.648438 293.351562 C 672.15625 295.882812 669.535156 298.273438 666.78125 300.523438 C 664.03125 302.769531 661.167969 304.863281 658.191406 306.800781 C 655.214844 308.738281 652.140625 310.511719 648.972656 312.117188 C 620.824219 327.035156 570.164062 337.730469 488.257812 310.429688 C 505.9375 287.332031 525.070312 265.511719 545.664062 244.96875 C 566.253906 224.421875 588.117188 205.339844 611.253906 187.714844 C 611.820312 187.316406 612.339844 186.867188 612.816406 186.367188 C 613.292969 185.867188 613.714844 185.328125 614.082031 184.746094 C 614.453125 184.160156 614.761719 183.546875 615.011719 182.902344 C 615.257812 182.261719 615.441406 181.597656 615.558594 180.917969 C 615.675781 180.238281 615.726562 179.554688 615.710938 178.863281 C 615.695312 178.175781 615.609375 177.492188 615.457031 176.820312 C 615.308594 176.148438 615.089844 175.496094 614.8125 174.863281 C 614.53125 174.234375 614.191406 173.636719 613.796875 173.074219 C 613.398438 172.507812 612.949219 171.988281 612.449219 171.511719 C 611.949219 171.039062 611.40625 170.617188 610.824219 170.246094 C 610.242188 169.878906 609.628906 169.570312 608.984375 169.320312 C 608.339844 169.074219 607.679688 168.890625 607 168.773438 C 606.316406 168.65625 605.632812 168.605469 604.945312 168.625 C 604.253906 168.640625 603.574219 168.726562 602.898438 168.878906 C 602.226562 169.03125 601.574219 169.246094 600.945312 169.527344 C 600.3125 169.808594 599.714844 170.144531 599.152344 170.542969 C 575.191406 188.476562 552.578125 207.980469 531.320312 229.046875 C 510.0625 250.117188 490.359375 272.554688 472.214844 296.355469 C 463.769531 264.269531 450.824219 181.519531 508.523438 123.539062 C 566.222656 65.558594 720.179688 69.78125 778.160156 74.285156 C 768.308594 86.882812 759.246094 100.023438 750.972656 113.714844 C 742.703125 127.402344 735.28125 141.539062 728.714844 156.121094 C 722.144531 170.703125 716.476562 185.625 711.707031 200.890625 C 706.9375 216.15625 703.101562 231.65625 700.195312 247.382812 Z M 574.664062 782.15625 L 241.980469 782.15625 C 240.421875 782.152344 238.933594 781.832031 237.507812 781.195312 C 236.085938 780.558594 234.855469 779.660156 233.816406 778.496094 C 232.835938 777.269531 232.148438 775.898438 231.753906 774.375 C 231.363281 772.855469 231.300781 771.320312 231.566406 769.773438 C 232.003906 767.1875 232.5 764.617188 233.050781 762.054688 C 233.605469 759.496094 234.210938 756.949219 234.875 754.414062 C 235.539062 751.878906 236.257812 749.359375 237.03125 746.855469 C 237.804688 744.355469 238.632812 741.871094 239.515625 739.402344 C 240.394531 736.9375 241.332031 734.492188 242.324219 732.066406 C 243.3125 729.640625 244.355469 727.238281 245.449219 724.855469 C 246.542969 722.476562 247.691406 720.121094 248.890625 717.792969 C 250.089844 715.464844 251.335938 713.160156 252.636719 710.886719 C 253.933594 708.609375 255.285156 706.367188 256.679688 704.148438 C 258.078125 701.933594 259.523438 699.75 261.019531 697.597656 C 262.511719 695.445312 264.050781 693.328125 265.636719 691.242188 C 267.222656 689.15625 268.855469 687.109375 270.53125 685.09375 C 272.207031 683.082031 273.925781 681.105469 275.6875 679.167969 C 277.453125 677.230469 279.257812 675.332031 281.101562 673.472656 C 282.949219 671.613281 284.835938 669.796875 286.757812 668.019531 C 288.683594 666.242188 290.648438 664.511719 292.648438 662.820312 C 294.652344 661.128906 296.691406 659.484375 298.761719 657.882812 C 300.835938 656.28125 302.945312 654.726562 305.085938 653.21875 C 307.226562 651.710938 309.402344 650.25 311.609375 648.835938 C 313.8125 647.421875 316.050781 646.058594 318.316406 644.746094 C 320.582031 643.429688 322.875 642.164062 325.195312 640.949219 C 327.515625 639.734375 329.863281 638.570312 332.234375 637.460938 C 334.609375 636.347656 337.003906 635.289062 339.421875 634.28125 C 341.839844 633.273438 344.28125 632.320312 346.738281 631.421875 C 349.199219 630.523438 351.679688 629.675781 354.175781 628.886719 C 356.675781 628.09375 359.1875 627.359375 361.71875 626.675781 C 364.246094 625.996094 366.789062 625.371094 369.347656 624.800781 C 371.90625 624.230469 374.472656 623.71875 377.050781 623.261719 C 379.632812 622.804688 382.21875 622.40625 384.816406 622.0625 C 387.414062 621.71875 390.019531 621.433594 392.628906 621.203125 C 395.238281 620.972656 397.851562 620.800781 400.46875 620.6875 C 403.085938 620.570312 405.703125 620.515625 408.324219 620.515625 C 410.941406 620.515625 413.5625 620.570312 416.179688 620.6875 C 418.796875 620.800781 421.410156 620.972656 424.019531 621.203125 C 426.628906 621.433594 429.230469 621.71875 431.828125 622.0625 C 434.425781 622.40625 437.015625 622.804688 439.59375 623.261719 C 442.175781 623.71875 444.742188 624.230469 447.300781 624.800781 C 449.855469 625.371094 452.398438 625.996094 454.929688 626.675781 C 457.460938 627.359375 459.972656 628.09375 462.46875 628.886719 C 464.96875 629.675781 467.445312 630.523438 469.90625 631.421875 C 472.367188 632.320312 474.804688 633.273438 477.226562 634.28125 C 479.644531 635.289062 482.039062 636.347656 484.410156 637.460938 C 486.78125 638.570312 489.128906 639.734375 491.449219 640.949219 C 493.773438 642.164062 496.066406 643.429688 498.332031 644.746094 C 500.597656 646.058594 502.832031 647.421875 505.039062 648.835938 C 507.246094 650.25 509.417969 651.710938 511.558594 653.21875 C 513.703125 654.726562 515.808594 656.28125 517.882812 657.882812 C 519.957031 659.484375 521.996094 661.128906 523.996094 662.820312 C 525.996094 664.511719 527.960938 666.242188 529.886719 668.019531 C 531.8125 669.796875 533.699219 671.613281 535.542969 673.472656 C 537.390625 675.332031 539.195312 677.230469 540.957031 679.167969 C 542.71875 681.105469 544.4375 683.082031 546.117188 685.09375 C 547.792969 687.109375 549.421875 689.15625 551.007812 691.242188 C 552.59375 693.328125 554.136719 695.445312 555.628906 697.597656 C 557.121094 699.75 558.566406 701.933594 559.964844 704.148438 C 561.363281 706.367188 562.710938 708.609375 564.011719 710.886719 C 565.308594 713.160156 566.558594 715.464844 567.757812 717.792969 C 568.953125 720.121094 570.101562 722.476562 571.195312 724.855469 C 572.292969 727.238281 573.335938 729.640625 574.324219 732.066406 C 575.3125 734.492188 576.25 736.9375 577.132812 739.402344 C 578.015625 741.871094 578.84375 744.355469 579.617188 746.859375 C 580.390625 749.359375 581.109375 751.878906 581.773438 754.414062 C 582.433594 756.949219 583.042969 759.496094 583.59375 762.054688 C 584.144531 764.617188 584.640625 767.1875 585.078125 769.773438 C 585.222656 770.546875 585.273438 771.328125 585.234375 772.117188 C 585.195312 772.90625 585.066406 773.675781 584.847656 774.433594 C 584.625 775.191406 584.324219 775.914062 583.933594 776.601562 C 583.546875 777.285156 583.082031 777.917969 582.546875 778.496094 C 581.398438 779.296875 580.144531 779.84375 578.777344 780.136719 C 577.410156 780.429688 576.039062 780.445312 574.667969 780.1875 Z M 254.925781 759.078125 L 561.71875 759.078125 C 561.1875 756.960938 560.609375 754.855469 559.992188 752.765625 C 559.371094 750.671875 558.707031 748.59375 558 746.527344 C 557.296875 744.460938 556.546875 742.414062 555.757812 740.378906 C 554.964844 738.34375 554.132812 736.328125 553.261719 734.328125 C 552.386719 732.328125 551.472656 730.347656 550.515625 728.386719 C 549.558594 726.425781 548.5625 724.484375 547.527344 722.5625 C 546.488281 720.644531 545.414062 718.746094 544.300781 716.871094 C 543.183594 714.992188 542.03125 713.140625 540.839844 711.3125 C 539.648438 709.484375 538.417969 707.683594 537.152344 705.90625 C 535.886719 704.128906 534.585938 702.378906 533.246094 700.65625 C 531.90625 698.929688 530.535156 697.234375 529.125 695.570312 C 527.714844 693.902344 526.273438 692.265625 524.796875 690.660156 C 523.320312 689.050781 521.8125 687.476562 520.269531 685.933594 C 518.726562 684.386719 517.152344 682.875 515.550781 681.398438 C 513.945312 679.917969 512.3125 678.472656 510.648438 677.0625 C 508.984375 675.648438 507.289062 674.273438 505.570312 672.929688 C 503.847656 671.589844 502.101562 670.285156 500.324219 669.015625 C 498.550781 667.746094 496.75 666.511719 494.921875 665.320312 C 493.097656 664.125 491.246094 662.96875 489.371094 661.851562 C 487.5 660.730469 485.601562 659.652344 483.683594 658.613281 C 481.765625 657.574219 479.824219 656.574219 477.867188 655.613281 C 475.90625 654.65625 473.925781 653.738281 471.929688 652.859375 C 469.929688 651.980469 467.914062 651.144531 465.882812 650.351562 C 463.851562 649.558594 461.800781 648.804688 459.738281 648.097656 C 457.675781 647.386719 455.597656 646.722656 453.503906 646.097656 C 451.414062 645.472656 449.3125 644.894531 447.195312 644.359375 C 445.082031 643.820312 442.953125 643.328125 440.820312 642.882812 C 438.683594 642.433594 436.539062 642.027344 434.386719 641.667969 C 432.234375 641.308594 430.074219 640.996094 427.910156 640.726562 C 425.746094 640.453125 423.574219 640.230469 421.398438 640.050781 C 419.226562 639.867188 417.046875 639.734375 414.867188 639.644531 C 412.6875 639.550781 410.503906 639.507812 408.324219 639.507812 C 406.140625 639.507812 403.960938 639.550781 401.78125 639.644531 C 399.597656 639.734375 397.421875 639.867188 395.246094 640.050781 C 393.070312 640.230469 390.902344 640.453125 388.738281 640.726562 C 386.570312 640.996094 384.410156 641.308594 382.257812 641.667969 C 380.105469 642.027344 377.964844 642.433594 375.828125 642.882812 C 373.691406 643.328125 371.566406 643.820312 369.449219 644.359375 C 367.335938 644.894531 365.234375 645.472656 363.140625 646.097656 C 361.050781 646.722656 358.972656 647.386719 356.910156 648.097656 C 354.84375 648.804688 352.796875 649.558594 350.765625 650.351562 C 348.730469 651.144531 346.714844 651.980469 344.71875 652.859375 C 342.71875 653.738281 340.742188 654.65625 338.78125 655.613281 C 336.820312 656.574219 334.882812 657.574219 332.964844 658.613281 C 331.042969 659.652344 329.148438 660.730469 327.273438 661.847656 C 325.398438 662.96875 323.550781 664.125 321.722656 665.320312 C 319.898438 666.511719 318.097656 667.746094 316.320312 669.015625 C 314.546875 670.285156 312.796875 671.589844 311.078125 672.929688 C 309.355469 674.273438 307.664062 675.648438 306 677.0625 C 304.335938 678.472656 302.703125 679.917969 301.097656 681.398438 C 299.492188 682.875 297.917969 684.386719 296.378906 685.933594 C 294.835938 687.476562 293.328125 689.050781 291.851562 690.660156 C 290.375 692.265625 288.929688 693.902344 287.523438 695.570312 C 286.113281 697.234375 284.738281 698.929688 283.402344 700.65625 C 282.0625 702.378906 280.761719 704.128906 279.492188 705.90625 C 278.226562 707.683594 277 709.484375 275.808594 711.3125 C 274.617188 713.140625 273.460938 714.992188 272.347656 716.871094 C 271.230469 718.746094 270.15625 720.644531 269.121094 722.5625 C 268.082031 724.484375 267.085938 726.425781 266.132812 728.386719 C 265.175781 730.347656 264.261719 732.328125 263.386719 734.328125 C 262.511719 736.328125 261.679688 738.34375 260.890625 740.378906 C 260.097656 742.414062 259.351562 744.460938 258.644531 746.527344 C 257.9375 748.59375 257.277344 750.671875 256.65625 752.765625 C 256.035156 754.855469 255.460938 756.960938 254.925781 759.078125 Z M 254.925781 759.078125 " fill-opacity="1" fill-rule="nonzero"/></g><g clip-path="url(#71b1e47bbb)"><g clip-path="url(#0c2bed8c23)"><g transform="matrix(1, 0, 0, 1, 388, 612)"><g clip-path="url(#3886395a75)"><g clip-path="url(#769cb26e09)"><g clip-path="url(#9ac9292ef6)"><rect x="-566.2" width="1166.4" fill="#0b1d3a" height="1166.39999" y="-790.199998" fill-opacity="1"/></g></g></g></g></g></g><g clip-path="url(#894a968ab9)"><g clip-path="url(#708af56c51)"><g transform="matrix(1, 0, 0, 1, 386, 614)"><g clip-path="url(#8c2767f533)"><g clip-path="url(#bc42b97753)"><g clip-path="url(#95dd51cd77)"><rect x="-564.2" width="1166.4" fill="#0b1d3a" height="1166.39999" y="-792.199998" fill-opacity="1"/></g></g></g></g></g></g><g clip-path="url(#2b9d118c6b)"><g clip-path="url(#21f3251793)"><g transform="matrix(1, 0, 0, 1, 387, 610)"><g clip-path="url(#032ec15c77)"><g clip-path="url(#7595ea4f66)"><g clip-path="url(#8c97cc8daa)"><rect x="-565.2" width="1166.4" fill="#0b1d3a" height="1166.39999" y="-788.199998" fill-opacity="1"/></g></g></g></g></g></g><g clip-path="url(#baf9f6c071)"><g clip-path="url(#e165ea2011)"><g transform="matrix(1, 0, 0, 1, 379, 613)"><g clip-path="url(#a5c2dd6dd2)"><g clip-path="url(#d407e67f84)"><g clip-path="url(#2c9a3f0d98)"><rect x="-557.2" width="1166.4" fill="#0b1d3a" height="1166.39999" y="-791.199998" fill-opacity="1"/></g></g></g></g></g></g><g clip-path="url(#3e1b9ee042)"><g clip-path="url(#83564181b8)"><g transform="matrix(1, 0, 0, 1, 384, 613)"><g clip-path="url(#2e61beb722)"><g clip-path="url(#5a8f720239)"><g clip-path="url(#3b1d746b4c)"><rect x="-562.2" width="1166.4" fill="#0b1d3a" height="1166.39999" y="-791.199998" fill-opacity="1"/></g></g></g></g></g></g></svg>