<svg xmlns="http://www.w3.org/2000/svg" xmlns:xlink="http://www.w3.org/1999/xlink" width="1080" zoomAndPan="magnify" viewBox="0 0 810 809.999993" height="1080" preserveAspectRatio="xMidYMid meet" version="1.0"><defs><clipPath id="c9c96dd0d0"><path d="M 228 4 L 578 4 L 578 607 L 228 607 Z M 228 4 " clip-rule="nonzero"/></clipPath><clipPath id="24f9d1a377"><path d="M -53.554688 390 L 395.28125 -77.390625 L 862.667969 371.445312 L 413.835938 838.832031 Z M -53.554688 390 " clip-rule="nonzero"/></clipPath><clipPath id="dca29d3194"><path d="M -53.554688 390 L 395.28125 -77.390625 L 862.667969 371.445312 L 413.835938 838.832031 Z M -53.554688 390 " clip-rule="nonzero"/></clipPath><clipPath id="74b1750928"><path d="M 311 172 L 493 172 L 493 354 L 311 354 Z M 311 172 " clip-rule="nonzero"/></clipPath><clipPath id="1d6da08ed6"><path d="M -53.554688 390 L 395.28125 -77.390625 L 862.667969 371.445312 L 413.835938 838.832031 Z M -53.554688 390 " clip-rule="nonzero"/></clipPath><clipPath id="347864b1d5"><path d="M -53.554688 390 L 395.28125 -77.390625 L 862.667969 371.445312 L 413.835938 838.832031 Z M -53.554688 390 " clip-rule="nonzero"/></clipPath><clipPath id="48f4168873"><path d="M 265 456 L 549 456 L 549 504 L 265 504 Z M 265 456 " clip-rule="nonzero"/></clipPath><clipPath id="9e89e9976b"><path d="M -53.554688 390 L 395.28125 -77.390625 L 862.667969 371.445312 L 413.835938 838.832031 Z M -53.554688 390 " clip-rule="nonzero"/></clipPath><clipPath id="15e1ecc207"><path d="M -53.554688 390 L 395.28125 -77.390625 L 862.667969 371.445312 L 413.835938 838.832031 Z M -53.554688 390 " clip-rule="nonzero"/></clipPath><clipPath id="4f7a69e0c9"><path d="M 498 378 L 645 378 L 645 644 L 498 644 Z M 498 378 " clip-rule="nonzero"/></clipPath><clipPath id="d8049fb601"><path d="M -53.554688 390 L 395.28125 -77.390625 L 862.667969 371.445312 L 413.835938 838.832031 Z M -53.554688 390 " clip-rule="nonzero"/></clipPath><clipPath id="b663428560"><path d="M -53.554688 390 L 395.28125 -77.390625 L 862.667969 371.445312 L 413.835938 838.832031 Z M -53.554688 390 " clip-rule="nonzero"/></clipPath><clipPath id="1ed3e55656"><path d="M 168 384 L 318 384 L 318 651 L 168 651 Z M 168 384 " clip-rule="nonzero"/></clipPath><clipPath id="5911b61dde"><path d="M -53.554688 390 L 395.28125 -77.390625 L 862.667969 371.445312 L 413.835938 838.832031 Z M -53.554688 390 " clip-rule="nonzero"/></clipPath><clipPath id="f53cda3a59"><path d="M -53.554688 390 L 395.28125 -77.390625 L 862.667969 371.445312 L 413.835938 838.832031 Z M -53.554688 390 " clip-rule="nonzero"/></clipPath><clipPath id="df709c8cb5"><path d="M 319 640 L 363 640 L 363 746 L 319 746 Z M 319 640 " clip-rule="nonzero"/></clipPath><clipPath id="6fd374aa43"><path d="M -53.554688 390 L 395.28125 -77.390625 L 862.667969 371.445312 L 413.835938 838.832031 Z M -53.554688 390 " clip-rule="nonzero"/></clipPath><clipPath id="9e927effec"><path d="M -53.554688 390 L 395.28125 -77.390625 L 862.667969 371.445312 L 413.835938 838.832031 Z M -53.554688 390 " clip-rule="nonzero"/></clipPath><clipPath id="9094c541d5"><path d="M 389 639 L 434 639 L 434 801 L 389 801 Z M 389 639 " clip-rule="nonzero"/></clipPath><clipPath id="f5c878729d"><path d="M -53.554688 390 L 395.28125 -77.390625 L 862.667969 371.445312 L 413.835938 838.832031 Z M -53.554688 390 " clip-rule="nonzero"/></clipPath><clipPath id="1541498efd"><path d="M -53.554688 390 L 395.28125 -77.390625 L 862.667969 371.445312 L 413.835938 838.832031 Z M -53.554688 390 " clip-rule="nonzero"/></clipPath><clipPath id="b254523f2e"><path d="M 458 637 L 503 637 L 503 744 L 458 744 Z M 458 637 " clip-rule="nonzero"/></clipPath><clipPath id="2ce106c2d3"><path d="M -53.554688 390 L 395.28125 -77.390625 L 862.667969 371.445312 L 413.835938 838.832031 Z M -53.554688 390 " clip-rule="nonzero"/></clipPath><clipPath id="ad2c9428d4"><path d="M -53.554688 390 L 395.28125 -77.390625 L 862.667969 371.445312 L 413.835938 838.832031 Z M -53.554688 390 " clip-rule="nonzero"/></clipPath><clipPath id="dae3dec254"><path d="M 283.800781 500.921875 L 315.527344 500.921875 L 315.527344 571.972656 L 283.800781 571.972656 Z M 283.800781 500.921875 " clip-rule="nonzero"/></clipPath><clipPath id="db97373b75"><path d="M 295.949219 505.425781 C 301.050781 526.574219 301.574219 536.023438 303.449219 542.476562 C 304.949219 547.648438 306.976562 552.675781 309.148438 555.898438 C 310.648438 558.148438 312.824219 559.199219 313.875 560.851562 C 314.699219 562.199219 315.375 563.476562 315.449219 564.824219 C 315.523438 566.175781 315 567.824219 314.25 568.949219 C 313.5 570.074219 311.925781 571.125 310.800781 571.5 C 310.050781 571.875 309.523438 571.949219 308.699219 571.875 C 307.574219 571.800781 305.699219 571.273438 304.648438 570.449219 C 303.601562 569.625 302.625 568.199219 302.25 566.925781 C 301.949219 565.648438 302.175781 563.773438 302.550781 562.648438 C 302.773438 561.898438 303.226562 561.375 303.675781 560.773438 C 304.125 560.25 304.574219 559.800781 305.324219 559.425781 C 306.375 558.898438 308.398438 558.449219 309.523438 558.523438 C 310.351562 558.523438 310.875 558.675781 311.625 559.125 C 312.601562 559.726562 314.023438 560.851562 314.699219 562.050781 C 315.300781 563.25 315.601562 564.976562 315.375 566.324219 C 315.148438 567.675781 314.101562 569.25 313.273438 570.074219 C 312.75 570.675781 312.300781 570.976562 311.476562 571.273438 C 310.425781 571.648438 308.550781 572.023438 307.273438 571.726562 C 305.925781 571.425781 304.875 570.523438 303.601562 569.476562 C 301.949219 568.125 300.148438 566.476562 298.5 563.851562 C 295.800781 559.425781 293.023438 552.074219 290.851562 544.351562 C 287.851562 533.773438 282.824219 511.726562 284.023438 505.800781 C 284.398438 503.773438 285.449219 502.949219 286.351562 502.125 C 287.175781 501.449219 288.074219 501.074219 289.125 501 C 290.324219 500.851562 292.199219 501.148438 293.398438 501.898438 C 294.523438 502.648438 295.949219 505.425781 295.949219 505.425781 " clip-rule="nonzero"/></clipPath><clipPath id="4542a176ee"><path d="M 0.800781 0.921875 L 32.527344 0.921875 L 32.527344 71.972656 L 0.800781 71.972656 Z M 0.800781 0.921875 " clip-rule="nonzero"/></clipPath><clipPath id="1e9efa66af"><path d="M 12.949219 5.425781 C 18.050781 26.574219 18.574219 36.023438 20.449219 42.476562 C 21.949219 47.648438 23.976562 52.675781 26.148438 55.898438 C 27.648438 58.148438 29.824219 59.199219 30.875 60.851562 C 31.699219 62.199219 32.375 63.476562 32.449219 64.824219 C 32.523438 66.175781 32 67.824219 31.25 68.949219 C 30.5 70.074219 28.925781 71.125 27.800781 71.5 C 27.050781 71.875 26.523438 71.949219 25.699219 71.875 C 24.574219 71.800781 22.699219 71.273438 21.648438 70.449219 C 20.601562 69.625 19.625 68.199219 19.25 66.925781 C 18.949219 65.648438 19.175781 63.773438 19.550781 62.648438 C 19.773438 61.898438 20.226562 61.375 20.675781 60.773438 C 21.125 60.25 21.574219 59.800781 22.324219 59.425781 C 23.375 58.898438 25.398438 58.449219 26.523438 58.523438 C 27.351562 58.523438 27.875 58.675781 28.625 59.125 C 29.601562 59.726562 31.023438 60.851562 31.699219 62.050781 C 32.300781 63.25 32.601562 64.976562 32.375 66.324219 C 32.148438 67.675781 31.101562 69.25 30.273438 70.074219 C 29.75 70.675781 29.300781 70.976562 28.476562 71.273438 C 27.425781 71.648438 25.550781 72.023438 24.273438 71.726562 C 22.925781 71.425781 21.875 70.523438 20.601562 69.476562 C 18.949219 68.125 17.148438 66.476562 15.5 63.851562 C 12.800781 59.425781 10.023438 52.074219 7.851562 44.351562 C 4.851562 33.773438 -0.175781 11.726562 1.023438 5.800781 C 1.398438 3.773438 2.449219 2.949219 3.351562 2.125 C 4.175781 1.449219 5.074219 1.074219 6.125 1 C 7.324219 0.851562 9.199219 1.148438 10.398438 1.898438 C 11.523438 2.648438 12.949219 5.425781 12.949219 5.425781 " clip-rule="nonzero"/></clipPath><clipPath id="2aeb486847"><rect x="0" width="33" y="0" height="72"/></clipPath></defs><g clip-path="url(#c9c96dd0d0)"><g clip-path="url(#24f9d1a377)"><g clip-path="url(#dca29d3194)"><path fill="#0b1d3a" d="M 407.023438 7.328125 C 400.667969 4.023438 393.09375 4.179688 386.878906 7.734375 C 386.878906 7.734375 224.3125 100.039062 228.511719 308.46875 C 230.59375 411.183594 263.996094 548.0625 309.132812 599.460938 C 313.214844 604.117188 319.160156 606.753906 325.367188 606.609375 L 492.730469 603.21875 C 498.9375 603.113281 504.769531 600.238281 508.660156 595.417969 C 551.679688 542.234375 579.511719 404.117188 577.433594 301.402344 C 573.191406 92.972656 407.023438 7.328125 407.023438 7.328125 Z M 397.847656 50.78125 C 430.789062 72.03125 532.265625 149.765625 535.355469 302.253906 C 537.164062 390.671875 517.019531 508.640625 481.546875 561.371094 C 481.546875 561.371094 334.847656 564.34375 334.847656 564.34375 C 297.289062 513.070312 272.363281 396.035156 270.589844 307.617188 C 267.503906 155.125 365.769531 73.328125 397.804688 50.78125 Z M 397.847656 50.78125 " fill-opacity="1" fill-rule="evenodd"/></g></g></g><g clip-path="url(#74b1750928)"><g clip-path="url(#1d6da08ed6)"><g clip-path="url(#347864b1d5)"><path fill="#0b1d3a" d="M 400.289062 172.316406 C 350.199219 173.328125 310.332031 214.84375 311.347656 264.933594 C 312.359375 315.023438 353.875 354.886719 403.964844 353.875 C 454.054688 352.859375 493.917969 311.34375 492.90625 261.257812 C 491.890625 211.167969 450.375 171.300781 400.289062 172.316406 Z M 401.140625 214.394531 C 428.027344 213.847656 450.28125 235.21875 450.828125 262.109375 C 451.371094 288.996094 430 311.25 403.113281 311.796875 C 376.222656 312.339844 353.96875 290.96875 353.425781 264.082031 C 352.878906 237.191406 374.25 214.9375 401.140625 214.394531 Z M 401.140625 214.394531 " fill-opacity="1" fill-rule="evenodd"/></g></g></g><g clip-path="url(#48f4168873)"><g clip-path="url(#9e89e9976b)"><g clip-path="url(#15e1ecc207)"><path fill="#0b1d3a" d="M 526.566406 456.90625 L 285.636719 461.785156 C 274.054688 462.019531 264.808594 471.652344 265.042969 483.230469 C 265.277344 494.851562 274.886719 504.078125 286.507812 503.84375 L 527.398438 498.964844 C 539.015625 498.730469 548.246094 489.121094 548.007812 477.5 C 547.773438 465.921875 538.144531 456.671875 526.566406 456.90625 Z M 526.566406 456.90625 " fill-opacity="1" fill-rule="evenodd"/></g></g></g><g clip-path="url(#4f7a69e0c9)"><g clip-path="url(#d8049fb601)"><g clip-path="url(#b663428560)"><path fill="#0b1d3a" d="M 542.503906 413.257812 C 542.503906 413.257812 573.011719 448.429688 594.15625 472.777344 C 601.875 481.667969 604.597656 493.8125 601.457031 505.144531 L 579.953125 582.488281 C 579.953125 582.488281 534.210938 538.5625 534.210938 538.5625 C 525.832031 530.519531 512.507812 530.789062 504.464844 539.164062 C 496.421875 547.539062 496.691406 560.867188 505.066406 568.910156 L 576.21875 637.238281 C 581.5625 642.367188 589.21875 644.3125 596.339844 642.363281 C 603.480469 640.394531 609.082031 634.847656 611.058594 627.683594 C 611.058594 627.683594 630.566406 557.519531 641.996094 516.421875 C 648.949219 491.484375 642.910156 464.726562 625.933594 445.195312 C 604.789062 420.84375 574.257812 385.65625 574.257812 385.65625 C 566.644531 376.902344 553.351562 375.964844 544.601562 383.578125 C 535.808594 391.195312 534.867188 404.488281 542.503906 413.257812 Z M 542.503906 413.257812 " fill-opacity="1" fill-rule="evenodd"/></g></g></g><g clip-path="url(#1ed3e55656)"><g clip-path="url(#5911b61dde)"><g clip-path="url(#f53cda3a59)"><path fill="#0b1d3a" d="M 235.097656 392.523438 C 235.097656 392.523438 206.015625 428.921875 185.875 454.105469 C 169.699219 474.3125 164.753906 501.292969 172.710938 525.925781 C 185.792969 566.527344 208.125 635.84375 208.125 635.84375 C 210.390625 642.921875 216.210938 648.238281 223.425781 649.917969 C 230.621094 651.578125 238.195312 649.320312 243.324219 643.980469 L 311.648438 572.828125 C 319.695312 564.449219 319.421875 551.125 311.046875 543.082031 C 302.671875 535.039062 289.347656 535.308594 281.304688 543.683594 L 237.378906 589.425781 L 212.757812 513.015625 C 209.160156 501.820312 211.390625 489.574219 218.742188 480.378906 C 238.882812 455.195312 267.945312 418.820312 267.945312 418.820312 C 275.21875 409.746094 273.742188 396.503906 264.648438 389.25 C 255.59375 381.992188 242.351562 383.472656 235.097656 392.523438 Z M 235.097656 392.523438 " fill-opacity="1" fill-rule="evenodd"/></g></g></g><g clip-path="url(#df709c8cb5)"><g clip-path="url(#6fd374aa43)"><g clip-path="url(#9e927effec)"><path fill="#0b1d3a" d="M 319.390625 662.15625 L 320.667969 725.214844 C 320.921875 736.816406 330.53125 746.042969 342.132812 745.828125 C 353.734375 745.574219 362.960938 735.964844 362.746094 724.363281 L 361.46875 661.304688 C 361.234375 649.683594 351.625 640.457031 340.003906 640.691406 C 328.382812 640.925781 319.15625 650.539062 319.390625 662.15625 Z M 319.390625 662.15625 " fill-opacity="1" fill-rule="evenodd"/></g></g></g><g clip-path="url(#9094c541d5)"><g clip-path="url(#f5c878729d)"><g clip-path="url(#1541498efd)"><path fill="#0b1d3a" d="M 389.152344 660.746094 L 391.539062 779.582031 C 391.773438 791.203125 401.382812 800.429688 413.003906 800.195312 C 424.625 799.960938 433.851562 790.351562 433.617188 778.730469 L 431.191406 659.894531 C 430.976562 648.292969 421.34375 639.042969 409.746094 639.300781 C 398.144531 639.515625 388.894531 649.144531 389.152344 660.746094 Z M 389.152344 660.746094 " fill-opacity="1" fill-rule="evenodd"/></g></g></g><g clip-path="url(#b254523f2e)"><g clip-path="url(#2ce106c2d3)"><g clip-path="url(#ad2c9428d4)"><path fill="#0b1d3a" d="M 458.871094 659.332031 L 460.148438 722.390625 C 460.402344 733.992188 470.011719 743.21875 481.613281 743.003906 C 493.214844 742.75 502.441406 733.140625 502.226562 721.539062 L 500.949219 658.480469 C 500.714844 646.859375 491.105469 637.632812 479.484375 637.867188 C 467.863281 638.101562 458.636719 647.710938 458.871094 659.332031 Z M 458.871094 659.332031 " fill-opacity="1" fill-rule="evenodd"/></g></g></g><g clip-path="url(#dae3dec254)"><g clip-path="url(#db97373b75)"><g transform="matrix(1, 0, 0, 1, 283, 500)"><g clip-path="url(#2aeb486847)"><g clip-path="url(#4542a176ee)"><g clip-path="url(#1e9efa66af)"><rect x="-461.2" width="1166.4" fill="#0b1d3a" height="1166.39999" y="-678.199998" fill-opacity="1"/></g></g></g></g></g></g></svg>